<svg width="108" height="32" viewBox="0 0 108 32" fill="none" xmlns="http://www.w3.org/2000/svg">
<rect x="0.4" y="0.4" width="107.2" height="31.2" rx="5.2" fill="black"/>
<path d="M65.2204 15.3608V17.1936H64.0715V18.3956H65.2204V22.4795C65.2204 23.8741 65.8512 24.4319 67.4383 24.4319C67.7172 24.4319 67.9829 24.3987 68.2153 24.3588V23.1702C68.0161 23.1901 67.8899 23.2034 67.6707 23.2034C66.9602 23.2034 66.6481 22.8713 66.6481 22.1143V18.3956H68.2153V17.1936H66.6481V15.3608H65.2204Z" fill="white"/>
<path d="M72.2584 24.5315C74.3701 24.5315 75.665 23.117 75.665 20.7729C75.665 18.442 74.3634 17.0209 72.2584 17.0209C70.1466 17.0209 68.8451 18.442 68.8451 20.7729C68.8451 23.117 70.14 24.5315 72.2584 24.5315ZM72.2584 23.2631C71.0166 23.2631 70.3193 22.3534 70.3193 20.7729C70.3193 19.2057 71.0166 18.2893 72.2584 18.2893C73.4935 18.2893 74.1974 19.2057 74.1974 20.7729C74.1974 22.3467 73.4935 23.2631 72.2584 23.2631Z" fill="white"/>
<path d="M76.7729 24.392H78.2006V20.1221C78.2006 19.1061 78.9643 18.4221 80.0467 18.4221C80.2991 18.4221 80.7241 18.4686 80.8436 18.5084V17.1006C80.6909 17.0608 80.4186 17.0409 80.2061 17.0409C79.2631 17.0409 78.4596 17.5588 78.2538 18.2694H78.1475V17.1604H76.7729V24.392Z" fill="white"/>
<path d="M84.3886 18.2362C85.4445 18.2362 86.1351 18.9733 86.1683 20.1088H82.516C82.5957 18.9799 83.3328 18.2362 84.3886 18.2362ZM86.1617 22.4397C85.8961 23.0041 85.3051 23.3163 84.4418 23.3163C83.2996 23.3163 82.5625 22.5127 82.516 21.2444V21.1647H87.6226V20.6666C87.6226 18.3956 86.4074 17.0209 84.3953 17.0209C82.3566 17.0209 81.0617 18.4885 81.0617 20.7995C81.0617 23.1104 82.3301 24.5315 84.4019 24.5315C86.0554 24.5315 87.2109 23.7346 87.5363 22.4397H86.1617Z" fill="white"/>
<path d="M55.8575 21.7215C55.9676 23.4973 57.4474 24.6329 59.6499 24.6329C62.0038 24.6329 63.4768 23.4422 63.4768 21.5426C63.4768 20.049 62.6371 19.223 60.5997 18.7481L59.5054 18.4797C58.2114 18.1769 57.6883 17.7708 57.6883 17.0618C57.6883 16.1671 58.5005 15.582 59.7187 15.582C60.8751 15.582 61.6735 16.1533 61.818 17.0687H63.3185C63.229 15.3962 61.7561 14.2192 59.7394 14.2192C57.5713 14.2192 56.1259 15.3962 56.1259 17.1651C56.1259 18.6242 56.945 19.4915 58.7414 19.9113L60.0216 20.2211C61.3362 20.5308 61.9144 20.985 61.9144 21.7422C61.9144 22.6232 61.0058 23.2633 59.7669 23.2633C58.4385 23.2633 57.5162 22.6644 57.3855 21.7215H55.8575Z" fill="white"/>
<path d="M41.0676 17.0409C40.0848 17.0409 39.2348 17.5323 38.7965 18.3557H38.6903V17.1604H37.3157V26.7959H38.7434V23.2963H38.8563C39.2348 24.06 40.0516 24.5116 41.0809 24.5116C42.9071 24.5116 44.0692 23.0706 44.0692 20.7729C44.0692 18.4752 42.9071 17.0409 41.0676 17.0409ZM40.6625 23.2299C39.4672 23.2299 38.7168 22.287 38.7168 20.7795C38.7168 19.2655 39.4672 18.3225 40.6692 18.3225C41.8778 18.3225 42.6016 19.2456 42.6016 20.7729C42.6016 22.3069 41.8778 23.2299 40.6625 23.2299Z" fill="white"/>
<path d="M49.0651 17.0409C48.0822 17.0409 47.2322 17.5323 46.794 18.3557H46.6877V17.1604H45.3131V26.7959H46.7408V23.2963H46.8537C47.2322 24.06 48.049 24.5116 49.0783 24.5116C50.9045 24.5116 52.0666 23.0706 52.0666 20.7729C52.0666 18.4752 50.9045 17.0409 49.0651 17.0409ZM48.66 23.2299C47.4647 23.2299 46.7143 22.287 46.7143 20.7795C46.7143 19.2655 47.4647 18.3225 48.6666 18.3225C49.8752 18.3225 50.599 19.2456 50.599 20.7729C50.599 22.3069 49.8752 23.2299 48.66 23.2299Z" fill="white"/>
<path d="M34.7541 24.392H36.3922L32.8062 14.4601H31.1475L27.5615 24.392H29.1446L30.06 21.7559H33.8455L34.7541 24.392ZM31.8977 16.2634H32.0147L33.4532 20.4619H30.4523L31.8977 16.2634Z" fill="white"/>
<path d="M28.5205 6.96865V11.7599H30.2504C31.6781 11.7599 32.5049 10.88 32.5049 9.34932C32.5049 7.84189 31.6715 6.96865 30.2504 6.96865H28.5205ZM29.2643 7.646H30.1674C31.1602 7.646 31.7479 8.27686 31.7479 9.35928C31.7479 10.4583 31.1701 11.0825 30.1674 11.0825H29.2643V7.646Z" fill="white"/>
<path d="M35.037 11.8296C36.0928 11.8296 36.7403 11.1224 36.7403 9.95029C36.7403 8.78486 36.0895 8.07432 35.037 8.07432C33.9811 8.07432 33.3303 8.78486 33.3303 9.95029C33.3303 11.1224 33.9778 11.8296 35.037 11.8296ZM35.037 11.1954C34.4161 11.1954 34.0674 10.7405 34.0674 9.95029C34.0674 9.1667 34.4161 8.7085 35.037 8.7085C35.6545 8.7085 36.0065 9.1667 36.0065 9.95029C36.0065 10.7372 35.6545 11.1954 35.037 11.1954Z" fill="white"/>
<path d="M42.254 8.14404H41.5401L40.896 10.9032H40.8395L40.0958 8.14404H39.4118L38.668 10.9032H38.6149L37.9675 8.14404H37.2436L38.2397 11.7599H38.9735L39.7173 9.09697H39.7737L40.5208 11.7599H41.2612L42.254 8.14404Z" fill="white"/>
<path d="M43.0761 11.7599H43.79V9.64482C43.79 9.08037 44.1253 8.72842 44.6532 8.72842C45.1812 8.72842 45.4335 9.01729 45.4335 9.59834V11.7599H46.1474V9.41904C46.1474 8.55908 45.7025 8.07432 44.8956 8.07432C44.3511 8.07432 43.9925 8.3167 43.8165 8.71846H43.7634V8.14404H43.0761V11.7599Z" fill="white"/>
<path d="M47.2716 11.7599H47.9855V6.73291H47.2716V11.7599Z" fill="white"/>
<path d="M50.6703 11.8296C51.7262 11.8296 52.3736 11.1224 52.3736 9.95029C52.3736 8.78486 51.7229 8.07432 50.6703 8.07432C49.6145 8.07432 48.9637 8.78486 48.9637 9.95029C48.9637 11.1224 49.6111 11.8296 50.6703 11.8296ZM50.6703 11.1954C50.0494 11.1954 49.7008 10.7405 49.7008 9.95029C49.7008 9.1667 50.0494 8.7085 50.6703 8.7085C51.2879 8.7085 51.6398 9.1667 51.6398 9.95029C51.6398 10.7372 51.2879 11.1954 50.6703 11.1954Z" fill="white"/>
<path d="M54.5006 11.2187C54.1121 11.2187 53.8299 11.0294 53.8299 10.704C53.8299 10.3853 54.0557 10.2159 54.5537 10.1827L55.437 10.1263V10.4284C55.437 10.8767 55.0385 11.2187 54.5006 11.2187ZM54.318 11.8196C54.7928 11.8196 55.1879 11.6138 55.4037 11.2519H55.4602V11.7599H56.1475V9.28955C56.1475 8.52588 55.6362 8.07432 54.7297 8.07432C53.9096 8.07432 53.3252 8.47275 53.2522 9.09365H53.9428C54.0225 8.83799 54.2981 8.69189 54.6965 8.69189C55.1846 8.69189 55.437 8.90771 55.437 9.28955V9.60166L54.4575 9.65811C53.5975 9.71123 53.1127 10.0864 53.1127 10.7372C53.1127 11.3979 53.6207 11.8196 54.318 11.8196Z" fill="white"/>
<path d="M58.57 11.8196C59.068 11.8196 59.4897 11.5839 59.7055 11.1888H59.762V11.7599H60.446V6.73291H59.7321V8.71846H59.679C59.4831 8.32002 59.0647 8.08428 58.57 8.08428C57.6569 8.08428 57.0692 8.80811 57.0692 9.95029C57.0692 11.0958 57.6503 11.8196 58.57 11.8196ZM58.7725 8.7251C59.3702 8.7251 59.7454 9.1999 59.7454 9.95361C59.7454 10.7106 59.3735 11.1788 58.7725 11.1788C58.1682 11.1788 57.8063 10.7173 57.8063 9.95029C57.8063 9.18994 58.1716 8.7251 58.7725 8.7251Z" fill="white"/>
<path d="M65.0752 11.8296C66.131 11.8296 66.7785 11.1224 66.7785 9.95029C66.7785 8.78486 66.1277 8.07432 65.0752 8.07432C64.0193 8.07432 63.3685 8.78486 63.3685 9.95029C63.3685 11.1224 64.016 11.8296 65.0752 11.8296ZM65.0752 11.1954C64.4543 11.1954 64.1056 10.7405 64.1056 9.95029C64.1056 9.1667 64.4543 8.7085 65.0752 8.7085C65.6927 8.7085 66.0447 9.1667 66.0447 9.95029C66.0447 10.7372 65.6927 11.1954 65.0752 11.1954Z" fill="white"/>
<path d="M67.7234 11.7599H68.4373V9.64482C68.4373 9.08037 68.7727 8.72842 69.3006 8.72842C69.8285 8.72842 70.0809 9.01729 70.0809 9.59834V11.7599H70.7947V9.41904C70.7947 8.55908 70.3498 8.07432 69.543 8.07432C68.9984 8.07432 68.6398 8.3167 68.4639 8.71846H68.4107V8.14404H67.7234V11.7599Z" fill="white"/>
<path d="M74.0825 7.24424V8.16064H73.5081V8.76162H74.0825V10.8036C74.0825 11.5009 74.3979 11.7798 75.1915 11.7798C75.3309 11.7798 75.4637 11.7632 75.58 11.7433V11.1489C75.4804 11.1589 75.4173 11.1655 75.3077 11.1655C74.9524 11.1655 74.7964 10.9995 74.7964 10.621V8.76162H75.58V8.16064H74.7964V7.24424H74.0825Z" fill="white"/>
<path d="M76.5382 11.7599H77.2521V9.64814C77.2521 9.10029 77.5775 8.73174 78.1618 8.73174C78.6665 8.73174 78.9355 9.02393 78.9355 9.60166V11.7599H79.6493V9.42568C79.6493 8.56572 79.1745 8.07764 78.4042 8.07764C77.8597 8.07764 77.4779 8.32002 77.3019 8.7251H77.2454V6.73291H76.5382V11.7599Z" fill="white"/>
<path d="M82.2246 8.68193C82.7525 8.68193 83.0978 9.05049 83.1144 9.61826H81.2882C81.3281 9.05381 81.6966 8.68193 82.2246 8.68193ZM83.1111 10.7837C82.9783 11.0659 82.6828 11.222 82.2511 11.222C81.68 11.222 81.3115 10.8202 81.2882 10.186V10.1462H83.8416V9.89717C83.8416 8.76162 83.2339 8.07432 82.2279 8.07432C81.2086 8.07432 80.5611 8.80811 80.5611 9.96357C80.5611 11.119 81.1953 11.8296 82.2312 11.8296C83.058 11.8296 83.6357 11.4312 83.7984 10.7837H83.1111Z" fill="white"/>
<path d="M19.8154 16.2406C19.8327 14.8958 20.5549 13.6233 21.7006 12.919C20.9779 11.8867 19.7672 11.2322 18.5077 11.1928C17.1643 11.0518 15.862 11.9967 15.1774 11.9967C14.4796 11.9967 13.4256 11.2068 12.2906 11.2302C10.8112 11.278 9.43201 12.1191 8.71225 13.4125C7.16505 16.0912 8.31912 20.028 9.80121 22.1933C10.5427 23.2536 11.4094 24.438 12.5433 24.396C13.653 24.3499 14.0674 23.6884 15.4068 23.6884C16.7338 23.6884 17.1227 24.396 18.2796 24.3693C19.4703 24.3499 20.2205 23.3043 20.936 22.2339C21.4688 21.4785 21.8788 20.6435 22.1508 19.7599C20.7515 19.1681 19.817 17.7599 19.8154 16.2406Z" fill="white"/>
<path d="M17.6301 9.76881C18.2793 8.98945 18.5991 7.9877 18.5217 6.97632C17.5298 7.08049 16.6136 7.55454 15.9556 8.30401C15.3122 9.03627 14.9773 10.0204 15.0406 10.9931C16.0329 11.0033 17.0083 10.5421 17.6301 9.76881Z" fill="white"/>
<rect x="0.4" y="0.4" width="107.2" height="31.2" rx="5.2" stroke="#A6A6A6" stroke-width="0.8"/>
</svg>
