<?xml version="1.0" encoding="UTF-8"?><svg id="Layer_1" xmlns="http://www.w3.org/2000/svg" viewBox="0 0 64 64"><g id="Web_Security"><path d="m36.40039062,52H4c-1.10302734,0-2-.89746094-2-2V4c0-1.10253906.89697266-2,2-2h18.25976562c.71484375,0,1.37792969.38476562,1.73193359,1.00585938l3.14013672,5.49023438c.17822266.31152344.50927734.50390625.86816406.50390625h30v25c0,.55273438.44726562,1,1,1s1-.44726562,1-1V4c0-2.20605469-1.79394531-4-4-4H4C1.79443359,0,0,1.79394531,0,4v46c0,2.20605469,1.79443359,4,4,4h32.40039062c.55273438,0,1-.44726562,1-1s-.44726562-1-1-1ZM58,4v3h-29.41992188l-2.8515625-4.98535156c-.00292969-.00512695-.0067749-.00952148-.00970459-.01464844h30.28118896c1.10253906,0,2,.89746094,2,2Z"/><path d="m63.38476562,39.07714844l-12-5c-.24609375-.10351562-.5234375-.10351562-.76953125,0l-12,5c-.37207031.15527344-.61523438.51953125-.61523438.92285156v5c0,8.30273438,4.95214844,15.73046875,12.61523438,18.92285156.12304688.05175781.25390625.07714844.38476562.07714844s.26171875-.02539062.38476562-.07714844c7.66308594-3.19238281,12.61523438-10.62011719,12.61523438-18.92285156v-5c0-.40332031-.24316406-.76757812-.61523438-.92285156Zm-1.38476562,5.92285156c0,7.35253906-4.30371094,13.9453125-11,16.91210938-6.69628906-2.96679688-11-9.55957031-11-16.91210938v-4.33300781l11-4.58398438,11,4.58398438v4.33300781Z"/><path d="m50.61523438,38.41113281l-8,3.33203125c-.37207031.15527344-.61523438.51953125-.61523438.92285156v2.33398438c0,6.01171875,3.26367188,11.54589844,8.51757812,14.44238281.14941406.08300781.31640625.12402344.48242188.12402344s.33300781-.04101562.48242188-.12402344c5.25390625-2.89648438,8.51757812-8.43066406,8.51757812-14.44238281v-2.33398438c0-.40332031-.24316406-.76757812-.61523438-.92285156l-8-3.33203125c-.24609375-.10351562-.5234375-.10351562-.76953125,0Zm7.38476562,4.921875v1.66699219c0,5.09667969-2.66796875,9.80175781-7,12.41210938-4.33203125-2.61035156-7-7.31542969-7-12.41210938v-1.66699219l7-2.91601562,7,2.91601562Z"/><path d="m48.72753906,48.31347656c-.390625-.390625-1.0234375-.390625-1.4140625,0s-.390625,1.0234375,0,1.4140625l2,2c.1953125.1953125.45117188.29296875.70703125.29296875s.51171875-.09765625.70703125-.29296875l4-4c.390625-.390625.390625-1.0234375,0-1.4140625s-1.0234375-.390625-1.4140625,0l-3.29296875,3.29296875-1.29296875-1.29296875Z"/><circle cx="21" cy="6" r="1"/><path d="m6,15v32c0,.55273438.44775391,1,1,1h20c.55224609,0,1-.44726562,1-1V15c0-.55273438-.44775391-1-1-1H7c-.55224609,0-1,.44726562-1,1Zm2,31v-5.63043213l4.97363281-5.80218506,2.83105469,3.53936768-1.62402344,2.32000732c-.31640625.45214844-.20654297,1.07617188.24609375,1.39257812.17431641.12207031.37451172.18066406.57226562.18066406.31542969,0,.62548828-.1484375.8203125-.42675781l6.13330078-8.76171875,4.04736328,6.47576904v6.71270752H8Zm18-30v19.51269531l-3.15185547-5.04296875c-.17822266-.28417969-.48681641-.4609375-.82226562-.46972656-.33007812-.01269531-.65283203.15136719-.84521484.42675781l-4.18060303,5.97235107-3.21929932-4.02410889c-.18603516-.23242188-.46582031-.37011719-.76367188-.375-.29980469-.01269531-.58300781.12207031-.77636719.34960938l-4.24072266,4.94750977v-21.29711914h18Z"/><path d="m16,30c2.20556641,0,4-1.79394531,4-4s-1.79443359-4-4-4-4,1.79394531-4,4,1.79443359,4,4,4Zm0-6c1.10302734,0,2,.89746094,2,2s-.89697266,2-2,2-2-.89746094-2-2,.89697266-2,2-2Z"/><path d="m54,15c0-.55273438-.44726562-1-1-1h-20c-.55224609,0-1,.44726562-1,1v8c0,.55273438.44775391,1,1,1h20c.55273438,0,1-.44726562,1-1v-8Zm-2,7h-18v-6h18v6Z"/><path d="m54,28c0-.55273438-.44726562-1-1-1h-20c-.55224609,0-1,.44726562-1,1s.44775391,1,1,1h20c.55273438,0,1-.44726562,1-1Z"/><path d="m46,33c0-.55273438-.44726562-1-1-1h-12c-.55224609,0-1,.44726562-1,1s.44775391,1,1,1h12c.55273438,0,1-.44726562,1-1Z"/><path d="m33,37c-.55224609,0-1,.44726562-1,1s.44775391,1,1,1h2c.55273438,0,1-.44726562,1-1s-.44726562-1-1-1h-2Z"/></g></svg>