<?xml version="1.0" encoding="UTF-8"?><svg id="Layer_1" xmlns="http://www.w3.org/2000/svg" viewBox="0 0 64 64"><g id="Verification"><path d="m60,10h-4v-2c0-2.20605469-1.79394531-4-4-4H4C1.79443359,4,0,5.79394531,0,8v42c0,2.20605469,1.79443359,4,4,4h4v2c0,2.20605469,1.79443359,4,4,4h48c2.20605469,0,4-1.79394531,4-4V14c0-2.20605469-1.79394531-4-4-4Zm2,4v3h-29.41992188l-2.84814453-4.984375c-.00311279-.00549316-.00720215-.01019287-.01037598-.015625h30.27844238c1.10253906,0,2,.89746094,2,2Zm-8-6v2h-29.99005127l-2.28143311-3.98535156c-.00292969-.00512695-.0067749-.00952148-.00970459-.01464844h30.28118896c1.10253906,0,2,.89746094,2,2ZM4,52c-1.10302734,0-2-.89746094-2-2V8c0-1.10253906.89697266-2,2-2h14.25976562c.71484375,0,1.37792969.38476562,1.73242188,1.00683594l1.71337891,2.99316406h-9.70556641c-2.20556641,0-4,1.79394531-4,4v38h-4Zm58,4c0,1.10253906-.89746094,2-2,2H12c-1.10302734,0-2-.89746094-2-2V14c0-1.10253906.89697266-2,2-2h14.25878906c.71582031,0,1.38134766.38574219,1.73681641,1.0078125l3.13623047,5.48828125c.17773438.31152344.50927734.50390625.86816406.50390625h30v37Z"/><circle cx="25" cy="16" r="1"/><path d="m28,28v3h-1c-1.65429688,0-3,1.34570312-3,3v12c0,1.65429688,1.34570312,3,3,3h7.04980469c.55273438,0,1-.44726562,1-1s-.44726562-1-1-1h-7.04980469c-.55126953,0-1-.44824219-1-1v-12c0-.55175781.44873047-1,1-1h14c.55175781,0,1,.44824219,1,1v3.04980469c0,.55273438.44726562,1,1,1s1-.44726562,1-1v-3.04980469c0-1.65429688-1.34570312-3-3-3h-1v-3c0-3.30859375-2.69140625-6-6-6s-6,2.69140625-6,6Zm2,0c0-2.20605469,1.79443359-4,4-4,2.20605469,0,4,1.79394531,4,4v3h-8v-3Z"/><path d="m33,38v4c0,.55273438.44726562,1,1,1s1-.44726562,1-1v-4c0-.55273438-.44726562-1-1-1s-1,.44726562-1,1Z"/><path d="m36,47c0,4.41113281,3.58886719,8,8,8s8-3.58886719,8-8-3.58886719-8-8-8-8,3.58886719-8,8Zm14,0c0,3.30859375-2.69140625,6-6,6s-6-2.69140625-6-6,2.69140625-6,6-6,6,2.69140625,6,6Z"/><path d="m42.70703125,46.29296875c-.390625-.390625-1.0234375-.390625-1.4140625,0s-.390625,1.0234375,0,1.4140625l2,2c.1953125.1953125.45117188.29296875.70703125.29296875s.51171875-.09765625.70703125-.29296875l3-3c.390625-.390625.390625-1.0234375,0-1.4140625s-1.0234375-.390625-1.4140625,0l-2.29296875,2.29296875-1.29296875-1.29296875Z"/></g></svg>