<?xml version="1.0" encoding="UTF-8"?><svg id="Layer_1" xmlns="http://www.w3.org/2000/svg" viewBox="0 0 64 64"><g id="Database_Security"><path d="m21.25439453,19.63378906c-1.05175781-.27636719-2.02246094-.59082031-2.88574219-.93359375-.51464844-.20410156-1.09570312.04882812-1.29833984.56054688-.20410156.51367188.046875,1.09472656.56005859,1.29882812.93798828.37207031,1.98632812.7109375,3.11523438,1.0078125.08544922.02246094.17089844.03320312.25488281.03320312.44335938,0,.84863281-.296875.96679688-.74609375.14013672-.53417969-.17871094-1.08105469-.71289062-1.22070312Z"/><path d="m28.08935547,20.78320312c-.98974609-.08886719-1.97851562-.20800781-2.93896484-.35351562-.54052734-.07910156-1.05566406.29199219-1.13916016.83789062-.08300781.54589844.29248047,1.05566406.83837891,1.13867188,1.00097656.15234375,2.03076172.27636719,3.06103516.36914062.03027344.00292969.06054688.00390625.09033203.00390625.51220703,0,.94824219-.390625.99511719-.91113281.04931641-.54980469-.35693359-1.03515625-.90673828-1.08496094Z"/><path d="m32.01757812,20.99121094c-.52197266.00878906-1.0078125.4296875-1.01757812.98242188-.00976562.55175781.43017578,1.0078125.98242188,1.01757812.33691406.00585938.67626953.00878906,1.01757812.00878906,5.85546875,0,11.45703125-.88964844,15.36865234-2.44042969.51318359-.20410156.76464844-.78515625.56103516-1.29785156-.20361328-.51367188-.78320312-.765625-1.29833984-.56152344-3.68554688,1.46191406-9.01855469,2.29980469-14.63134766,2.29980469-.32958984,0-.65722656-.00292969-.98242188-.00878906Z"/><path d="m21.25439453,32.63378906c-1.05175781-.27636719-2.02246094-.59082031-2.88574219-.93359375-.51464844-.203125-1.09570312.04785156-1.29833984.56054688-.20410156.51367188.046875,1.09472656.56005859,1.29882812.93798828.37207031,1.98632812.7109375,3.11523438,1.0078125.08544922.02246094.17089844.03320312.25488281.03320312.44335938,0,.84863281-.296875.96679688-.74609375.14013672-.53417969-.17871094-1.08105469-.71289062-1.22070312Z"/><path d="m28.08935547,33.78320312c-.98974609-.08886719-1.97851562-.20800781-2.93896484-.35351562-.54052734-.08398438-1.05566406.29199219-1.13916016.83789062-.08300781.54589844.29248047,1.05566406.83837891,1.13867188,1.00097656.15234375,2.03076172.27636719,3.06103516.36914062.03027344.00292969.06054688.00390625.09033203.00390625.51220703,0,.94824219-.390625.99511719-.91113281.04931641-.54980469-.35693359-1.03515625-.90673828-1.08496094Z"/><path d="m21.25439453,45.63378906c-1.05175781-.27636719-2.02246094-.59082031-2.88574219-.93359375-.51464844-.20507812-1.09570312.04785156-1.29833984.56054688-.20410156.51367188.046875,1.09472656.56005859,1.29882812.93798828.37207031,1.98632812.7109375,3.11523438,1.0078125.08544922.02246094.17089844.03320312.25488281.03320312.44335938,0,.84863281-.296875.96679688-.74609375.14013672-.53417969-.17871094-1.08105469-.71289062-1.22070312Z"/><path d="m28.08935547,46.78320312c-.98974609-.08886719-1.97851562-.20800781-2.93896484-.35351562-.54052734-.08300781-1.05566406.29199219-1.13916016.83789062-.08300781.54589844.29248047,1.05566406.83837891,1.13867188,1.00097656.15234375,2.03076172.27636719,3.06103516.36914062.03027344.00292969.06054688.00390625.09033203.00390625.51220703,0,.94824219-.390625.99511719-.91113281.04931641-.54980469-.35693359-1.03515625-.90673828-1.08496094Z"/><path d="m63.44726562,36.10546875l-9.44726562-4.72363281V8c0-5.19628906-10.81982422-8-21-8S12,2.80371094,12,8v8h-4.14196777c-.44720459-1.72052002-1.99969482-3-3.85803223-3-2.20556641,0-4,1.79394531-4,4s1.79443359,4,4,4c1.8583374,0,3.41082764-1.27947998,3.85803223-3h4.14196777v10h-4.14196777c-.44720459-1.72052002-1.99969482-3-3.85803223-3-2.20556641,0-4,1.79394531-4,4s1.79443359,4,4,4c1.8583374,0,3.41082764-1.27947998,3.85803223-3h4.14196777v10h-4.14196777c-.44720459-1.72052002-1.99969482-3-3.85803223-3-2.20556641,0-4,1.79394531-4,4s1.79443359,4,4,4c1.8583374,0,3.41082764-1.27947998,3.85803223-3h4.14196777v5c0,5.19628906,10.81982422,8,21,8,1.49645996,0,2.95843506-.06530762,4.37347412-.17431641,2.58221436,4.13092041,6.5022583,7.40606689,11.2901001,9.11572266.10888672.0390625.22265625.05859375.33642578.05859375s.22753906-.01953125.33642578-.05859375c8.77050781-3.13183594,14.66357422-11.49414062,14.66357422-20.80761719v-6.13378906c0-.37890625-.21386719-.72460938-.55273438-.89453125ZM4,19c-1.10302734,0-2-.89746094-2-2s.89697266-2,2-2,2,.89746094,2,2-.89697266,2-2,2Zm0,12c-1.10302734,0-2-.89746094-2-2s.89697266-2,2-2,2,.89746094,2,2-.89697266,2-2,2Zm0,12c-1.10302734,0-2-.89746094-2-2s.89697266-2,2-2,2,.89746094,2,2-.89697266,2-2,2Zm45.44726562-13.89453125c-.28125-.140625-.61328125-.140625-.89453125,0l-8.99389648,4.49694824c-2.12335205.26080322-4.32745361.39758301-6.55883789.39758301-.32324219-.00292969-.65039062,0-.97021484-.00976562-.56884766-.00097656-1.01269531.41894531-1.02929688.97070312s.41796875,1.01269531.96972656,1.02929688c.33984375.00976562.6796875.00976562,1.02978516.00976562.63061523,0,1.25177002-.03656006,1.87762451-.0569458l-.32489014.16241455c-.33886719.16992188-.55273438.515625-.55273438.89453125v2.97998047c-.33233643.00640869-.65991211.02001953-1,.02001953-11.19677734,0-19-3.16210938-19-6v-9.43920898c3.59124756,2.90289307,11.46820068,4.43920898,19,4.43920898s15.40875244-1.53631592,19-4.43920898v5.82104492l-2.55273438-1.27636719Zm2.55273438-8.10546875c0,2.83789062-7.80322266,6-19,6s-19-3.16210938-19-6v-9.43920898c3.59124756,2.90289307,11.46820068,4.43920898,19,4.43920898s15.40875244-1.53631592,19-4.43920898v9.43920898ZM33,2c11.19677734,0,19,3.16210938,19,6s-7.80322266,6-19,6-19-3.16210938-19-6,7.80322266-6,19-6Zm0,51c-11.19677734,0-19-3.16210938-19-6v-9.43920898c3.59124756,2.90289307,11.46820068,4.43920898,19,4.43920898.34008789,0,.66741943-.01397705,1-.02001953v1.15380859c0,1.30181885.12664795,2.58172607.34869385,3.83465576-.44921875.01135254-.89385986.03155518-1.34869385.03155518-.32324219.0078125-.65039062,0-.97021484-.00976562-.56884766.02246094-1.01269531.41894531-1.02929688.97070312s.41796875,1.01269531.96972656,1.02929688c.33984375.00976562.6796875.00976562,1.02978516.00976562.60748291,0,1.20367432-.02258301,1.80151367-.04199219.37426758,1.3616333.86486816,2.68133545,1.48413086,3.93511963-1.07434082.06323242-2.16656494.10687256-3.28564453.10687256Zm29-9.86621094c0,8.3515625-5.20898438,15.86132812-13,18.80078125-7.79101562-2.93945312-13-10.44921875-13-18.80078125v-5.515625l4.26599121-2.13299561c.01330566-.00616455.02563477-.01257324.03863525-.01928711l8.69537354-4.34771729,13,6.5v5.515625Z"/><path d="m48.55273438,33.578125l-10,5c-.33886719.16992188-.55273438.515625-.55273438.89453125v3.66113281c0,7.06542969,4.15478516,13.52734375,10.58447266,16.46386719.13232422.05957031.27392578.08984375.41552734.08984375s.28320312-.03027344.41552734-.08984375c6.4296875-2.93652344,10.58447266-9.3984375,10.58447266-16.46386719v-3.66113281c0-.37890625-.21386719-.72460938-.55273438-.89453125l-10-5c-.28125-.140625-.61328125-.140625-.89453125,0Zm9.44726562,6.51269531v3.04296875c0,6.13085938-3.51757812,11.75195312-9,14.44726562-5.48242188-2.6953125-9-8.31640625-9-14.44726562v-3.04296875l9-4.5,9,4.5Z"/><path d="m45.70703125,45.29296875c-.390625-.390625-1.0234375-.390625-1.4140625,0s-.390625,1.0234375,0,1.4140625l3,3c.1953125.1953125.45117188.29296875.70703125.29296875s.51171875-.09765625.70703125-.29296875l5-5c.390625-.390625.390625-1.0234375,0-1.4140625s-1.0234375-.390625-1.4140625,0l-4.29296875,4.29296875-2.29296875-2.29296875Z"/></g></svg>