<?xml version="1.0" encoding="UTF-8"?><svg id="Layer_1" xmlns="http://www.w3.org/2000/svg" viewBox="0 0 64 64"><g id="Safe_Search"><path d="m56.14196777,26c.44708252,1.72052002,1.99932861,3,3.85803223,3,2.20605469,0,4-1.79394531,4-4s-1.79394531-4-4-4c-1.85870361,0-3.41094971,1.27947998-3.85803223,3h-2.222229c.04803467-.71057129.08026123-1.42340088.08026123-2.13964844v-7.86035156h2.14196777c.44708252,1.72052002,1.99932861,3,3.85803223,3,2.20605469,0,4-1.79394531,4-4s-1.79394531-4-4-4c-1.85870361,0-3.41094971,1.27947998-3.85803223,3h-2.14196777v-4c0-.46289062-.31835938-.86523438-.76855469-.97265625l-21-5c-.15234375-.03710938-.31054688-.03710938-.46289062,0L10.76855469,7.02734375c-.45019531.10742188-.76855469.50976562-.76855469.97265625v4h-2.14196777c-.44708252-1.72052002-1.99932861-3-3.85803223-3-2.20605469,0-4,1.79394531-4,4s1.79394531,4,4,4c1.85870361,0,3.41094971-1.27947998,3.85803223-3h2.14196777v7.86035156c0,.71734619.0355835,1.42956543.08288574,2.13964844h-2.22485352c-.44708252-1.72052002-1.99932861-3-3.85803223-3-2.20605469,0-4,1.79394531-4,4s1.79394531,4,4,4c1.85870361,0,3.41094971-1.27947998,3.85803223-3h2.43115234c.25213623,1.93255615.66247559,3.831604,1.26177979,5.67254639l-1.74627686.34698486c-.46777344.09277344-.8046875.50292969-.8046875.98046875v3h-1.14196777c-.44708252-1.72052002-1.99932861-3-3.85803223-3-2.20605469,0-4,1.79394531-4,4s1.79394531,4,4,4c1.85870361,0,3.41094971-1.27947998,3.85803223-3h2.14196777c.55273438,0,1-.44726562,1-1v-3.17871094l1.24798584-.24841309c.95574951,2.39801025,2.19946289,4.6918335,3.74029541,6.8314209.55175781.76757812,1.15429688,1.52539062,1.78808594,2.25292969.36425781.41601562.99511719.45800781,1.41112465.09667969.41602379-.36328125.4599691-.99511719.09668785-1.41113281-.59375-.68066406-1.15625-1.38964844-1.67285156-2.10644531-3.67089844-5.09863281-5.61132812-11.10742188-5.61132812-17.37597656v-13.0703125l20-4.76171875,20,4.76171875v13.0703125c0,7.1640625-2.58691406,14.08398438-7.28515625,19.48339844-.36230469.41699219-.31835938,1.04785156.09863281,1.41113281.18945312.1640625.42285156.24511719.65625.24511719.27929688,0,.55664062-.11621094.75488281-.34375,2.36132812-2.71459961,4.21588135-5.79187012,5.52490234-9.0838623l1.25048828.24890137v3.17871094c0,.55273438.44726562,1,1,1h2.14196777c.44708252,1.72052002,1.99932861,3,3.85803223,3,2.20605469,0,4-1.79394531,4-4s-1.79394531-4-4-4c-1.85870361,0-3.41094971,1.27947998-3.85803223,3h-1.14196777v-3c0-.47753906-.33691406-.88769531-.8046875-.98046875l-1.75201416-.34814453c.59912109-1.84124756,1.02856445-3.73956299,1.28289795-5.67138672h2.41577148Zm3.85803223-3c1.10253906,0,2,.89746094,2,2s-.89746094,2-2,2-2-.89746094-2-2,.89746094-2,2-2Zm0-12c1.10253906,0,2,.89746094,2,2s-.89746094,2-2,2-2-.89746094-2-2,.89746094-2,2-2ZM4,15c-1.10253906,0-2-.89746094-2-2s.89746094-2,2-2,2,.89746094,2,2-.89746094,2-2,2Zm0,12c-1.10253906,0-2-.89746094-2-2s.89746094-2,2-2,2,.89746094,2,2-.89746094,2-2,2Zm0,12c-1.10253906,0-2-.89746094-2-2s.89746094-2,2-2,2,.89746094,2,2-.89746094,2-2,2Zm56-4c1.10253906,0,2,.89746094,2,2s-.89746094,2-2,2-2-.89746094-2-2,.89746094-2,2-2Z"/><path d="m38.29101562,43c.21777344,0,.4375-.07128906.62109375-.21679688,6.41113281-5.09179688,10.08789062-12.71777344,10.08789062-20.92285156v-9.91015625c0-.46289062-.31835938-.86523438-.76855469-.97265625l-16-3.81054688c-.15234375-.03710938-.31054688-.03710938-.46289062,0l-16,3.81054688c-.45019531.10742188-.76855469.50976562-.76855469.97265625v9.91015625c0,8.20507812,3.67675781,15.83105469,10.08789062,20.92285156.43457031.34277344,1.06152344.27050781,1.40527344-.16113281.34375-.43261719.27148438-1.06152344-.16113281-1.40527344-5.93066406-4.70996094-9.33203125-11.76464844-9.33203125-19.35644531v-9.12011719l15-3.57226562,15,3.57226562v9.12011719c0,7.59179688-3.40136719,14.64648438-9.33203125,19.35644531-.43261719.34375-.50488281.97265625-.16113281,1.40527344.19726562.24804688.48925781.37792969.78417969.37792969Z"/><path d="m61,45H3c-1.65429688,0-3,1.34570312-3,3v11c0,1.65429688,1.34570312,3,3,3h58c1.65429688,0,3-1.34570312,3-3v-11c0-1.65429688-1.34570312-3-3-3ZM2,59v-11c0-.55175781.44824219-1,1-1h44v13H3c-.55175781,0-1-.44824219-1-1Zm60,0c0,.55175781-.44824219,1-1,1h-12v-13h12c.55175781,0,1,.44824219,1,1v11Z"/><path d="m58.43334961,55.01928711c.35125732-.59490967.56665039-1.27960205.56665039-2.01928711,0-2.20605469-1.79394531-4-4-4s-4,1.79394531-4,4,1.79394531,4,4,4c.73968506,0,1.42437744-.21539307,2.01928711-.56665039l1.27368164,1.27368164c.1953125.1953125.45117188.29296875.70703125.29296875s.51171875-.09765625.70703125-.29296875c.390625-.390625.390625-1.0234375,0-1.4140625l-1.27368164-1.27368164Zm-5.43334961-2.01928711c0-1.10253906.89746094-2,2-2s2,.89746094,2,2c0,.55065918-.22399902,1.05004883-.58544922,1.41210938-.00042725.00042725-.0010376.00054932-.00146484.00097656s-.00054932.0010376-.00097656.00146484c-.36206055.3614502-.8614502.58544922-1.41210938.58544922-1.10253906,0-2-.89746094-2-2Z"/><path d="m14.14160156,49.00976562c-.54882812-.07617188-1.05371094.30273438-1.13183594.84863281l-.62011719,4.34277344-1.54882812-2.40917969c-.3671875-.57226562-1.31445312-.57226562-1.68164062,0l-1.54882812,2.40917969-.62011719-4.34277344c-.078125-.546875-.58496094-.9296875-1.13183594-.84863281-.546875.078125-.92675781.58496094-.84863281,1.13183594l1,7c.05957031.41308594.36914062.74609375.77734375.83496094.41210938.08984375.828125-.08496094,1.05371094-.43554688l2.15917969-3.35839844,2.15917969,3.35839844c.18652344.29003906.50488281.45898438.84082031.45898438.0703125,0,.14160156-.0078125.21289062-.0234375.40820312-.08886719.71777344-.421875.77734375-.83496094l1-7c.078125-.546875-.30175781-1.05371094-.84863281-1.13183594Z"/><path d="m26.14160156,49.00976562c-.54785156-.07617188-1.05371094.30273438-1.13183594.84863281l-.62011719,4.34277344-1.54882812-2.40917969c-.3671875-.57226562-1.31445312-.57226562-1.68164062,0l-1.54882812,2.40917969-.62011719-4.34277344c-.078125-.546875-.58398438-.9296875-1.13183594-.84863281-.546875.078125-.92675781.58496094-.84863281,1.13183594l1,7c.05957031.41308594.36914062.74609375.77734375.83496094.41015625.08984375.828125-.08496094,1.05371094-.43554688l2.15917969-3.35839844,2.15917969,3.35839844c.18652344.29003906.50488281.45898438.84082031.45898438.0703125,0,.14160156-.0078125.21289062-.0234375.40820312-.08886719.71777344-.421875.77734375-.83496094l1-7c.078125-.546875-.30175781-1.05371094-.84863281-1.13183594Z"/><path d="m38.14160156,49.00976562c-.54589844-.07617188-1.05371094.30273438-1.13183594.84863281l-.62011719,4.34277344-1.54882812-2.40917969c-.3671875-.57226562-1.31445312-.57226562-1.68164062,0l-1.54882812,2.40917969-.62011719-4.34277344c-.078125-.546875-.58300781-.9296875-1.13183594-.84863281-.546875.078125-.92675781.58496094-.84863281,1.13183594l1,7c.05957031.41308594.36914062.74609375.77734375.83496094.41210938.08984375.828125-.08496094,1.05371094-.43554688l2.15917969-3.35839844,2.15917969,3.35839844c.18652344.29003906.50488281.45898438.84082031.45898438.0703125,0,.14160156-.0078125.21289062-.0234375.40820312-.08886719.71777344-.421875.77734375-.83496094l1-7c.078125-.546875-.30175781-1.05371094-.84863281-1.13183594Z"/><circle cx="42" cy="57" r="1"/><path d="m32,35c1.65429688,0,3-1.34570312,3-3v-3.80859375c1.84179688-1.06445312,3-3.03613281,3-5.19140625,0-1.81445312-.80859375-3.51269531-2.21777344-4.65820312-1.41015625-1.14648438-3.25683594-1.58789062-5.06542969-1.20800781-2.35644531.49316406-4.21582031,2.42675781-4.62597656,4.81152344-.43261719,2.52050781.74804688,4.99804688,2.90917969,6.24609375v3.80859375c0,1.65429688,1.34570312,3,3,3Zm-3.93847656-12.71582031c.26855469-1.55859375,1.52832031-2.87109375,3.06445312-3.19335938.296875-.06152344.59179688-.09179688.88183594-.09179688.91796875,0,1.78808594.30566406,2.51269531.89453125.94042969.76464844,1.47949219,1.89648438,1.47949219,3.10644531,0,1.5859375-.94238281,3.0234375-2.40136719,3.66210938-.36328125.15917969-.59863281.51855469-.59863281.91601562v4.421875c0,.55175781-.44824219,1-1,1s-1-.44824219-1-1v-4.421875c0-.39746094-.23535156-.75683594-.59863281-.91601562-1.69335938-.74121094-2.65527344-2.54199219-2.33984375-4.37792969Z"/></g></svg>