<?xml version="1.0" encoding="UTF-8"?><svg id="Layer_1" xmlns="http://www.w3.org/2000/svg" viewBox="0 0 64 64"><g id="Incognito"><path d="m48,48h-1.10107422c-.46466064-2.27929688-2.48449707-4-4.89892578-4s-4.43426514,1.72070312-4.89892578,4h-2.20214844c-.46466064-2.27929688-2.48449707-4-4.89892578-4s-4.43426514,1.72070312-4.89892578,4h-1.10107422c-.55273438,0-1,.44726562-1,1s.44726562,1,1,1h1.10107422c.46466064,2.27929688,2.48449707,4,4.89892578,4s4.43426514-1.72070312,4.89892578-4h2.20214844c.46466064,2.27929688,2.48449707,4,4.89892578,4s4.43426514-1.72070312,4.89892578-4h1.10107422c.55273438,0,1-.44726562,1-1s-.44726562-1-1-1Zm-18,4c-1.65429688,0-3-1.34570312-3-3s1.34570312-3,3-3,3,1.34570312,3,3-1.34570312,3-3,3Zm12,0c-1.65429688,0-3-1.34570312-3-3s1.34570312-3,3-3,3,1.34570312,3,3-1.34570312,3-3,3Z"/><path d="m27.62792969,27.15039062l-1.47491455,8.84960938h-2.15301514c-.55273438,0-1,.44726562-1,1v2c0,1.65429688,1.34570312,3,3,3h20c1.65429688,0,3-1.34570312,3-3v-2c0-.55273438-.44726562-1-1-1h-2.15301514l-1.47491455-8.84960938c-.30371094-1.82519531-1.86816406-3.15039062-3.71777344-3.15039062-.58007812,0-1.16308594.13671875-1.68652344.39746094l-2.96777344,1.484375-2.96972656-1.48535156c-.52148438-.25976562-1.10449219-.39648438-1.68457031-.39648438-1.84960938,0-3.4140625,1.32519531-3.71777344,3.15039062Zm19.37207031,11.84960938c0,.55175781-.44824219,1-1,1h-20c-.55175781,0-1-.44824219-1-1v-1h22v1Zm-11.44726562-11.10546875c.28125.140625.61328125.140625.89453125,0l3.41308594-1.70703125c.24609375-.12304688.52050781-.1875.79394531-.1875.86816406,0,1.60253906.62207031,1.74511719,1.47851562l1.41992188,8.52148438h-15.63867188l1.41992188-8.52148438c.14257812-.85644531.87695312-1.47851562,1.74511719-1.47851562.2734375,0,.54785156.06445312.79199219.18652344l3.41503906,1.70800781Z"/><path d="m60,10h-4v-2c0-2.20605469-1.79394531-4-4-4H4C1.79443359,4,0,5.79394531,0,8v42c0,2.20605469,1.79443359,4,4,4h4v2c0,2.20605469,1.79443359,4,4,4h48c2.20605469,0,4-1.79394531,4-4V14c0-2.20605469-1.79394531-4-4-4Zm-8-4c1.10253906,0,2,.89746094,2,2v2h-29.99005127l-2.28143311-3.98535156c-.00292969-.00512695-.0067749-.00952148-.00970459-.01464844h30.28118896ZM8,14v38h-4c-1.10302734,0-2-.89746094-2-2V8c0-1.10253906.89697266-2,2-2h14.25976562c.71484375,0,1.37792969.38476562,1.73242188,1.00683594l1.71337891,2.99316406h-9.70556641c-2.20556641,0-4,1.79394531-4,4Zm54,42c0,1.10253906-.89746094,2-2,2H12c-1.10302734,0-2-.89746094-2-2V14c0-1.10253906.89697266-2,2-2h14.25878906c.71582031,0,1.38134766.38574219,1.73681641,1.0078125l3.13623047,5.48828125c.17773438.31152344.50927734.50390625.86816406.50390625h30v37Zm0-39h-29.41992188l-2.84814453-4.984375c-.00311279-.00549316-.00720215-.01019287-.01037598-.015625h30.27844238c1.10253906,0,2,.89746094,2,2v3Z"/><circle cx="25" cy="16" r="1"/></g></svg>