<?xml version="1.0" encoding="UTF-8"?><svg id="Layer_1" xmlns="http://www.w3.org/2000/svg" viewBox="0 0 64 64"><g id="Privacy"><path d="m36.40039062,52H4c-1.10302734,0-2-.89746094-2-2V4c0-1.10253906.89697266-2,2-2h18.25976562c.71484375,0,1.37792969.38476562,1.73193359,1.00585938l3.14013672,5.49023438c.17822266.31152344.50927734.50390625.86816406.50390625h30v25c0,.55273438.44726562,1,1,1s1-.44726562,1-1V4c0-2.20605469-1.79394531-4-4-4H4C1.79443359,0,0,1.79394531,0,4v46c0,2.20605469,1.79443359,4,4,4h32.40039062c.55273438,0,1-.44726562,1-1s-.44726562-1-1-1ZM58,4v3h-29.41992188l-2.8515625-4.98535156c-.00292969-.00512695-.0067749-.00952148-.00970459-.01464844h30.28118896c1.10253906,0,2,.89746094,2,2Z"/><path d="m63.38476562,39.07714844l-12-5c-.24609375-.10351562-.5234375-.10351562-.76953125,0l-12,5c-.37207031.15527344-.61523438.51953125-.61523438.92285156v5c0,8.30273438,4.95214844,15.73046875,12.61523438,18.92285156.12304688.05175781.25390625.07714844.38476562.07714844s.26171875-.02539062.38476562-.07714844c7.66308594-3.19238281,12.61523438-10.62011719,12.61523438-18.92285156v-5c0-.40332031-.24316406-.76757812-.61523438-.92285156Zm-1.38476562,5.92285156c0,7.35253906-4.30371094,13.9453125-11,16.91210938-6.69628906-2.96679688-11-9.55957031-11-16.91210938v-4.33300781l11-4.58398438,11,4.58398438v4.33300781Z"/><path d="m50.61523438,38.41113281l-8,3.33203125c-.37207031.15527344-.61523438.51953125-.61523438.92285156v2.33398438c0,6.01171875,3.26367188,11.54589844,8.51757812,14.44238281.14941406.08300781.31640625.12402344.48242188.12402344s.33300781-.04101562.48242188-.12402344c5.25390625-2.89648438,8.51757812-8.43066406,8.51757812-14.44238281v-2.33398438c0-.40332031-.24316406-.76757812-.61523438-.92285156l-8-3.33203125c-.24609375-.10351562-.5234375-.10351562-.76953125,0Zm7.38476562,4.921875v1.66699219c0,5.09667969-2.66796875,9.80175781-7,12.41210938-4.33203125-2.61035156-7-7.31542969-7-12.41210938v-1.66699219l7-2.91601562,7,2.91601562Z"/><path d="m48.72753906,48.31347656c-.390625-.390625-1.0234375-.390625-1.4140625,0s-.390625,1.0234375,0,1.4140625l2,2c.1953125.1953125.45117188.29296875.70703125.29296875s.51171875-.09765625.70703125-.29296875l4-4c.390625-.390625.390625-1.0234375,0-1.4140625s-1.0234375-.390625-1.4140625,0l-3.29296875,3.29296875-1.29296875-1.29296875Z"/><circle cx="21" cy="6" r="1"/><path d="m6,14v22c0,.55273438.44775391,1,1,1h18c.55224609,0,1-.44726562,1-1V14c0-.55273438-.44775391-1-1-1H7c-.55224609,0-1,.44726562-1,1Zm2.06347656,21c.38366699-3.02038574,2.49163818-5.59472656,5.40759277-6.56658936.76971436.35974121,1.62463379.56658936,2.52893066.56658936s1.75921631-.20684814,2.52893066-.56658936c2.91595459.97186279,5.02392578,3.54620361,5.40759277,6.56658936h-15.87304688Zm7.93652344-8c-2.20556641,0-4-1.79394531-4-4s1.79443359-4,4-4,4,1.79394531,4,4-1.79443359,4-4,4Zm8-12v15.01885986c-.93218994-1.246521-2.15344238-2.27386475-3.57739258-2.97821045.97613525-1.06750488,1.57739258-2.48339844,1.57739258-4.04064941,0-3.30859375-2.69140625-6-6-6s-6,2.69140625-6,6c0,1.55725098.60125732,2.97314453,1.57739258,4.04064941-1.4239502.7043457-2.64520264,1.73168945-3.57739258,2.97821045v-15.01885986h16Z"/><path d="m54,14c0-.55273438-.44726562-1-1-1h-22c-.55224609,0-1,.44726562-1,1v6c0,.55273438.44775391,1,1,1h22c.55273438,0,1-.44726562,1-1v-6Zm-2,5h-20v-4h20v4Z"/><path d="m54,30v-6c0-.55273438-.44726562-1-1-1h-22c-.55224609,0-1,.44726562-1,1v6c0,.55273438.44775391,1,1,1h22c.55273438,0,1-.44726562,1-1Zm-2-1h-20v-4h20v4Z"/><path d="m35,33h-4c-.55224609,0-1,.44726562-1,1s.44775391,1,1,1h4c.55273438,0,1-.44726562,1-1s-.44726562-1-1-1Z"/><path d="m35,37h-4c-.55224609,0-1,.44726562-1,1s.44775391,1,1,1h4c.55273438,0,1-.44726562,1-1s-.44726562-1-1-1Z"/></g></svg>