<?xml version="1.0" encoding="UTF-8"?><svg id="Layer_1" xmlns="http://www.w3.org/2000/svg" viewBox="0 0 64 64"><g id="Cloud_Security"><path d="m57,48c-1.8583374,0-3.41082764,1.27947998-3.85803223,3h-2.36120605l-.81054688-3.2421875c-.11132812-.4453125-.51123047-.7578125-.97021484-.7578125h-3.46832275c.94512939-2.46850586,1.46832275-5.12347412,1.46832275-7.86621094v-6.13378906c0-.37890625-.21386719-.72460938-.55273438-.89453125l-14-7c-.28125-.140625-.61328125-.140625-.89453125,0l-14,7c-.33886719.16992188-.55273438.515625-.55273438.89453125v6.13378906c0,2.74273682.52319336,5.39770508,1.46832275,7.86621094h-3.46832275c-.45898438,0-.85888672.3125-.97021484.7578125l-.81054688,3.2421875h-2.36120605c-.44720459-1.72052002-1.99969482-3-3.85803223-3-2.20556641,0-4,1.79394531-4,4s1.79443359,4,4,4c1.8583374,0,3.41082764-1.27947998,3.85803223-3h3.14196777c.45898438,0,.85888672-.3125.97021484-.7578125l.81054688-3.2421875h3.55480957c1.11853027,2.23461914,2.61993408,4.25860596,4.41638184,6h-2.75195312c-.45898438,0-.85888672.3125-.97021484.7578125l-.81054688,3.2421875h-1.36120605c-.44720459-1.72052002-1.99969482-3-3.85803223-3-2.20556641,0-4,1.79394531-4,4s1.79443359,4,4,4c1.8583374,0,3.41082764-1.27947998,3.85803223-3h2.14196777c.45898438,0,.85888672-.3125.97021484-.7578125l.81054688-3.2421875h4.34558105c1.67303467,1.2177124,3.52478027,2.22277832,5.53723145,2.94140625.10888672.0390625.22265625.05859375.33642578.05859375s.22753906-.01953125.33642578-.05859375c2.01245117-.71862793,3.86425781-1.72369385,5.53729248-2.94140625h4.34552002l.81054688,3.2421875c.11132812.4453125.51123047.7578125.97021484.7578125h2.14196777c.44720459,1.72052002,1.99969482,3,3.85803223,3,2.20556641,0,4-1.79394531,4-4s-1.79443359-4-4-4c-1.8583374,0-3.41082764,1.27947998-3.85803223,3h-1.36120605l-.81054688-3.2421875c-.11132812-.4453125-.51123047-.7578125-.97021484-.7578125h-2.75195312c1.79644775-1.74139404,3.29785156-3.76538086,4.41638184-6h3.55480957l.81054688,3.2421875c.11132812.4453125.51123047.7578125.97021484.7578125h3.14196777c.44720459,1.72052002,1.99969482,3,3.85803223,3,2.20556641,0,4-1.79394531,4-4s-1.79443359-4-4-4Zm-50,6c-1.10302734,0-2-.89746094-2-2s.89697266-2,2-2,2,.89746094,2,2-.89697266,2-2,2Zm7,8c-1.10302734,0-2-.89746094-2-2s.89697266-2,2-2,2,.89746094,2,2-.89697266,2-2,2Zm36-4c1.10302734,0,2,.89746094,2,2s-.89697266,2-2,2-2-.89746094-2-2,.89697266-2,2-2Zm-18-.06542969c-7.79101562-2.93945312-13-10.44921875-13-18.80078125v-5.515625l13-6.5,13,6.5v5.515625c0,8.3515625-5.20898438,15.86132812-13,18.80078125Zm25-3.93457031c-1.10302734,0-2-.89746094-2-2s.89697266-2,2-2,2,.89746094,2,2-.89697266,2-2,2Z"/><path d="m12,45h3.5c.55224609,0,1-.44726562,1-1s-.44775391-1-1-1h-3.5c-5.51416016,0-10-4.48632812-10-10,0-4.68457031,3.32177734-8.79394531,7.89892578-9.77246094.29394531-.0625.54443359-.25390625.68115234-.52246094.13720703-.26757812.14648438-.58203125.02539062-.85742188-.40185547-.91308594-.60546875-1.87109375-.60546875-2.84765625,0-3.859375,3.14013672-7,7-7,.46630859,0,.92138672.04394531,1.35253906.13085938.51025391.10351562,1.01611328-.20410156,1.15917969-.70605469,1.58154297-5.54882812,6.71679688-9.42480469,12.48828125-9.42480469,5.37109375,0,10.25146484,3.38085938,12.14404297,8.41210938.16357422.43457031.60888672.6953125,1.06396484.63964844.26708984-.03515625.52490234-.05175781.79199219-.05175781,3.85986328,0,7,3.140625,7,7,0,1.23730469-.3359375,2.46191406-.97167969,3.54296875-.17480469.296875-.18408203.66308594-.02539062.96875.15917969.30566406.46435547.5078125.80810547.53515625,5.15283203.40917969,9.18896484,4.78125,9.18896484,9.953125,0,5.51367188-4.48583984,10-10,10h-3.5c-.55224609,0-1,.44726562-1,1s.44775391,1,1,1h3.5c6.61669922,0,12-5.3828125,12-12,0-5.72460938-4.12158203-10.63378906-9.61474609-11.74804688.40478516-1.03710938.61474609-2.140625.61474609-3.25195312,0-4.96289062-4.03759766-9-9-9-.09033203,0-.1796875.00097656-.26904297.00488281-2.36132812-5.41699219-7.78564453-9.00488281-13.73095703-9.00488281-6.36621094,0-12.06201172,4.0859375-14.14648438,10.0390625-.28076172-.02539062-.56591797-.0390625-.85351562-.0390625-4.96240234,0-9,4.03710938-9,9,0,.87207031.12548828,1.73046875.37451172,2.56542969C3.45996094,23.12402344,0,27.76269531,0,33c0,6.6171875,5.38330078,12,12,12Z"/><path d="m42.44726562,34.578125l-10-5c-.28125-.140625-.61328125-.140625-.89453125,0l-10,5c-.33886719.16992188-.55273438.515625-.55273438.89453125v3.66113281c0,7.06542969,4.15478516,13.52734375,10.58447266,16.46386719.13232422.05957031.27392578.08984375.41552734.08984375s.28320312-.03027344.41552734-.08984375c6.4296875-2.93652344,10.58447266-9.3984375,10.58447266-16.46386719v-3.66113281c0-.37890625-.21386719-.72460938-.55273438-.89453125Zm-1.44726562,4.55566406c0,6.13085938-3.51757812,11.75195312-9,14.44726562-5.48242188-2.6953125-9-8.31640625-9-14.44726562v-3.04296875l9-4.5,9,4.5v3.04296875Z"/><path d="m28.70703125,41.29296875c-.390625-.390625-1.0234375-.390625-1.4140625,0s-.390625,1.0234375,0,1.4140625l3,3c.1953125.1953125.45117188.29296875.70703125.29296875s.51171875-.09765625.70703125-.29296875l5-5c.390625-.390625.390625-1.0234375,0-1.4140625s-1.0234375-.390625-1.4140625,0l-4.29296875,4.29296875-2.29296875-2.29296875Z"/></g></svg>