<?xml version="1.0" encoding="UTF-8"?><svg id="Layer_1" xmlns="http://www.w3.org/2000/svg" viewBox="0 0 64 64"><g id="Cyber_Security"><path d="m62,50h-1V10c0-3.30859375-2.69140625-6-6-6H9c-3.30859375,0-6,2.69140625-6,6v40h-1c-1.10253906,0-2,.89746094-2,2v3c0,2.75683594,2.24316406,5,5,5h54c2.75683594,0,5-2.24316406,5-5v-3c0-1.10253906-.89746094-2-2-2ZM5,10c0-2.20605469,1.79394531-4,4-4h46c2.20605469,0,4,1.79394531,4,4v40H5V10Zm57,45c0,1.65429688-1.34570312,3-3,3h-3v-2c0-.55273438-.44726562-1-1-1s-1,.44726562-1,1v2h-2v-2c0-.55273438-.44726562-1-1-1s-1,.44726562-1,1v2h-2v-2c0-.55273438-.44726562-1-1-1s-1,.44726562-1,1v2h-28v-2c0-.55273438-.44726562-1-1-1s-1,.44726562-1,1v2h-2v-2c0-.55273438-.44726562-1-1-1s-1,.44726562-1,1v2h-2v-2c0-.55273438-.44726562-1-1-1s-1,.44726562-1,1v2h-3c-1.65429688,0-3-1.34570312-3-3v-3h60v3Z"/><path d="m55,9H9c-.55273438,0-1,.44726562-1,1v36c0,.55273438.44726562,1,1,1h46c.55273438,0,1-.44726562,1-1V10c0-.55273438-.44726562-1-1-1Zm-1,36H10V11h44v34Z"/><path d="m19,36c-.21679688,0-.42675781.0703125-.59960938.20019531l-1.73968506,1.30438232c-.47601318-.31781006-1.04663086-.50457764-1.66070557-.50457764-1.65429688,0-3,1.34570312-3,3s1.34570312,3,3,3,3-1.34570312,3-3c0-.31140137-.06115723-.60595703-.14959717-.8885498l1.48260498-1.1114502h2.66699219c0,1.65429688,1.34570312,3,3,3h14c1.65429688,0,3-1.34570312,3-3h2.66699219l1.48260498,1.1114502c-.08843994.28259277-.14959717.57714844-.14959717.8885498,0,1.65429688,1.34570312,3,3,3s3-1.34570312,3-3-1.34570312-3-3-3c-.61407471,0-1.18469238.18676758-1.66070557.50457764l-1.73968506-1.30438232c-.17285156-.12988281-.3828125-.20019531-.59960938-.20019531h-3v-3h4.18432617c.41412354,1.16149902,1.51373291,2,2.81567383,2,1.65429688,0,3-1.34570312,3-3s-1.34570312-3-3-3c-1.30194092,0-2.40161133.83850098-2.81573486,2h-4.18426514v-3h3c.21679688,0,.42675781-.0703125.59960938-.20019531l1.73968506-1.30438232c.47601318.31781006,1.04663086.50457764,1.66070557.50457764,1.65429688,0,3-1.34570312,3-3s-1.34570312-3-3-3-3,1.34570312-3,3c0,.31140137.06115723.60595703.14959717.8885498l-1.48260498,1.1114502h-2.66699219c0-1.65429688-1.34570312-3-3-3v-3c0-3.859375-3.140625-7-7-7s-7,3.140625-7,7v3c-1.65429688,0-3,1.34570312-3,3h-2.66699219l-1.48260498-1.1114502c.08843994-.28259277.14959717-.57714844.14959717-.8885498,0-1.65429688-1.34570312-3-3-3s-3,1.34570312-3,3,1.34570312,3,3,3c.61407471,0,1.18469238-.18676758,1.66070557-.50457764l1.73968506,1.30438232c.17285156.12988281.3828125.20019531.59960938.20019531h3v3h-4.18426514c-.41412354-1.16149902-1.51379395-2-2.81573486-2-1.65429688,0-3,1.34570312-3,3s1.34570312,3,3,3c1.30194092,0,2.40161133-.83850098,2.81573486-2h4.18426514v3h-3Zm-4,5c-.55175781,0-1-.44824219-1-1s.44824219-1,1-1,1,.44824219,1,1-.44824219,1-1,1Zm35-1c0,.55175781-.44824219,1-1,1s-1-.44824219-1-1,.44824219-1,1-1,1,.44824219,1,1Zm-1-9c.55175781,0,1,.44824219,1,1s-.44824219,1-1,1-1-.44824219-1-1,.44824219-1,1-1Zm0-8c.55175781,0,1,.44824219,1,1s-.44824219,1-1,1-1-.44824219-1-1,.44824219-1,1-1Zm-35,1c0-.55175781.44824219-1,1-1s1,.44824219,1,1-.44824219,1-1,1-1-.44824219-1-1Zm1,9c-.55175781,0-1-.44824219-1-1s.44824219-1,1-1,1,.44824219,1,1-.44824219,1-1,1Zm12-13c0-2.75683594,2.24316406-5,5-5s5,2.24316406,5,5v3h-10v-3Zm-3,6c0-.55175781.44824219-1,1-1h14c.55175781,0,1,.44824219,1,1v12c0,.55175781-.44824219,1-1,1h-14c-.55175781,0-1-.44824219-1-1v-12Z"/><path d="m32,36c1.65429688,0,3-1.34570312,3-3v-2c0-1.65429688-1.34570312-3-3-3s-3,1.34570312-3,3v2c0,1.65429688,1.34570312,3,3,3Zm-1-5c0-.55175781.44824219-1,1-1s1,.44824219,1,1v2c0,.55175781-.44824219,1-1,1s-1-.44824219-1-1v-2Z"/></g></svg>