<?xml version="1.0" encoding="UTF-8"?><svg id="Layer_1" xmlns="http://www.w3.org/2000/svg" viewBox="0 0 64 64"><g id="Prompt"><path d="m36.39990234,52H4c-1.10302734,0-2-.89746094-2-2V4c0-1.10253906.89697266-2,2-2h18.25976562c.71484375,0,1.37792969.38476562,1.73193359,1.00585938l3.14013672,5.49023438c.17822266.31152344.50927734.50390625.86816406.50390625h29v24.58007812c0,.55273438.44775391,1,1,1s1-.44726562,1-1V4c0-2.20605469-1.79443359-4-4-4H4C1.79443359,0,0,1.79394531,0,4v46c0,2.20605469,1.79443359,4,4,4h32.39990234c.55224609,0,1-.44726562,1-1s-.44775391-1-1-1ZM57,4v3h-28.41992188l-2.8515625-4.98535156c-.00292969-.00512695-.0067749-.00952148-.00970459-.01464844h29.28118896c1.10302734,0,2,.89746094,2,2Z"/><path d="m63.38476562,39.07714844l-12-5c-.24609375-.10351562-.5234375-.10351562-.76953125,0l-12,5c-.37255859.15527344-.61523438.51953125-.61523438.92285156v5c0,8.30273438,4.95166016,15.73046875,12.61523438,18.92285156.12304688.05175781.25390625.07714844.38476562.07714844s.26171875-.02539062.38476562-.07714844c7.66357422-3.19238281,12.61523438-10.62011719,12.61523438-18.92285156v-5c0-.40332031-.24267578-.76757812-.61523438-.92285156Zm-1.38476562,5.92285156c0,7.35253906-4.30371094,13.9453125-11,16.91210938-6.69628906-2.96679688-11-9.55957031-11-16.91210938v-4.33300781l11-4.58398438,11,4.58398438v4.33300781Z"/><path d="m50.61572266,38.41113281l-8,3.33203125c-.37304688.15527344-.61572266.51953125-.61572266.92285156v2.33398438c0,6.01171875,3.26367188,11.54589844,8.51708984,14.44238281.15039062.08300781.31640625.12402344.48291016.12402344s.33251953-.04101562.48291016-.12402344c5.25341797-2.89648438,8.51708984-8.43066406,8.51708984-14.44238281v-2.33398438c0-.40332031-.24267578-.76757812-.61572266-.92285156l-8-3.33203125c-.24609375-.10351562-.52246094-.10351562-.76855469,0Zm7.38427734,4.921875v1.66699219c0,5.09667969-2.66796875,9.80175781-7,12.41210938-4.33203125-2.61035156-7-7.31542969-7-12.41210938v-1.66699219l7-2.91601562,7,2.91601562Z"/><path d="m48.72753906,48.31347656c-.390625-.390625-1.0234375-.390625-1.4140625,0s-.390625,1.0234375,0,1.4140625l2,2c.1953125.1953125.45117188.29296875.70703125.29296875s.51171875-.09765625.70703125-.29296875l4-4c.390625-.390625.390625-1.0234375,0-1.4140625s-1.0234375-.390625-1.4140625,0l-3.29296875,3.29296875-1.29296875-1.29296875Z"/><circle cx="21" cy="6" r="1"/><path d="m8,26h2c1.65429688,0,3-1.34570312,3-3v-6c0-1.65429688-1.34570312-3-3-3h-2c-1.65429688,0-3,1.34570312-3,3v6c0,1.65429688,1.34570312,3,3,3Zm-1-9c0-.55175781.44873047-1,1-1h2c.55126953,0,1,.44824219,1,1v6c0,.55175781-.44873047,1-1,1h-2c-.55126953,0-1-.44824219-1-1v-6Z"/><path d="m20,33c0-1.65429688-1.34570312-3-3-3h-2c-1.65429688,0-3,1.34570312-3,3v6c0,1.65429688,1.34570312,3,3,3h2c1.65429688,0,3-1.34570312,3-3v-6Zm-2,6c0,.55175781-.44873047,1-1,1h-2c-.55126953,0-1-.44824219-1-1v-6c0-.55175781.44873047-1,1-1h2c.55126953,0,1,.44824219,1,1v6Z"/><path d="m30,23v-6c0-1.65429688-1.34570312-3-3-3h-2c-1.65429688,0-3,1.34570312-3,3v6c0,1.65429688,1.34570312,3,3,3h2c1.65429688,0,3-1.34570312,3-3Zm-6,0v-6c0-.55175781.44873047-1,1-1h2c.55126953,0,1,.44824219,1,1v6c0,.55175781-.44873047,1-1,1h-2c-.55126953,0-1-.44824219-1-1Z"/><path d="m42,14c-1.65429688,0-3,1.34570312-3,3v6c0,1.65429688,1.34570312,3,3,3h2c1.65429688,0,3-1.34570312,3-3v-6c0-1.65429688-1.34570312-3-3-3h-2Zm3,3v6c0,.55175781-.44873047,1-1,1h-2c-.55126953,0-1-.44824219-1-1v-6c0-.55175781.44873047-1,1-1h2c.55126953,0,1,.44824219,1,1Z"/><path d="m20,15c0-.55273438-.44775391-1-1-1h-3c-.55224609,0-1,.44726562-1,1s.44775391,1,1,1h2v9c0,.55273438.44775391,1,1,1s1-.44726562,1-1v-10Z"/><path d="m6,32h2v9c0,.55273438.44775391,1,1,1s1-.44726562,1-1v-10c0-.55273438-.44775391-1-1-1h-3c-.55224609,0-1,.44726562-1,1s.44775391,1,1,1Z"/><path d="m27,41v-10c0-.55273438-.44775391-1-1-1h-3c-.55224609,0-1,.44726562-1,1s.44775391,1,1,1h2v9c0,.55273438.44775391,1,1,1s1-.44726562,1-1Z"/><path d="m33,42c.55224609,0,1-.44726562,1-1v-10c0-.55273438-.44775391-1-1-1h-3c-.55224609,0-1,.44726562-1,1s.44775391,1,1,1h2v9c0,.55273438.44775391,1,1,1Z"/><path d="m36,26c.55224609,0,1-.44726562,1-1v-10c0-.55273438-.44775391-1-1-1h-3c-.55224609,0-1,.44726562-1,1s.44775391,1,1,1h2v9c0,.55273438.44775391,1,1,1Z"/><path d="m53,26c.55224609,0,1-.44726562,1-1v-10c0-.55273438-.44775391-1-1-1h-3c-.55224609,0-1,.44726562-1,1s.44775391,1,1,1h2v9c0,.55273438.44775391,1,1,1Z"/><path d="m7,47h12c.55224609,0,1-.44726562,1-1s-.44775391-1-1-1H7c-.55224609,0-1,.44726562-1,1s.44775391,1,1,1Z"/><path d="m23,45c-.55224609,0-1,.44726562-1,1s.44775391,1,1,1h2c.55224609,0,1-.44726562,1-1s-.44775391-1-1-1h-2Z"/></g></svg>