<svg xmlns="http://www.w3.org/2000/svg" viewBox="0 0 32 32"><g id="blockchain"><path d="M27,20.77A11.77,11.77,0,0,0,28,16,12,12,0,0,0,19.27,4.45a.92.92,0,0,0-.33,0,3,3,0,0,0-5.88,0,.92.92,0,0,0-.33,0A12,12,0,0,0,4,16a11.77,11.77,0,0,0,1,4.77A3,3,0,0,0,4,23a3,3,0,0,0,4.67,2.49,12,12,0,0,0,14.66,0A3,3,0,0,0,27,20.77ZM16,4a1,1,0,1,1-1,1A1,1,0,0,1,16,4ZM7,24a1,1,0,1,1,1-1A1,1,0,0,1,7,24Zm2.85-.12A2.85,2.85,0,0,0,10,23a3,3,0,0,0-3-3H6.86A9.79,9.79,0,0,1,6,16a10,10,0,0,1,7.27-9.62l.06,0a3,3,0,0,0,5.34,0s0,0,.06,0A10,10,0,0,1,26,16a9.83,9.83,0,0,1-.86,4H25a3,3,0,0,0-3,3,2.85,2.85,0,0,0,.15.88,10,10,0,0,1-12.3,0ZM25,24a1,1,0,1,1,1-1A1,1,0,0,1,25,24Z"/><path d="M17.83,12a2.15,2.15,0,0,0-3.66,0L11.26,16.7A2.15,2.15,0,0,0,13.08,20h5.84a2.15,2.15,0,0,0,1.82-3.3Zm1.22,5.88a.14.14,0,0,1-.13.08H13.08a.14.14,0,0,1-.13-.08.14.14,0,0,1,0-.16l2.92-4.66a.15.15,0,0,1,.26,0l2.92,4.66A.14.14,0,0,1,19.05,17.92Z"/></g></svg>