<?xml version="1.0" encoding="utf-8"?>
<!-- Generator: Adobe Illustrator 28.2.0, SVG Export Plug-In . SVG Version: 6.00 Build 0)  -->
<svg version="1.0" id="Layer_1" xmlns="http://www.w3.org/2000/svg" xmlns:xlink="http://www.w3.org/1999/xlink" x="0px" y="0px"
	 viewBox="0 0 64 64" style="enable-background:new 0 0 64 64;" xml:space="preserve">
<style type="text/css">
	.st0{fill:none;stroke:#231F20;stroke-width:2;stroke-linecap:round;stroke-linejoin:round;stroke-miterlimit:10;}
</style>
<g>
	<path class="st0" d="M9.2,29.4v-8.1h27.2h21.4h0.7c1.9,0,3.4,1.5,3.4,3.3v30.6c0,1.8-1.5,3.3-3.4,3.3h-46c-1.9,0-3.4-1.5-3.4-3.3
		v-5.5"/>
	<polygon class="st0" points="36.5,21.3 9.2,21.3 9.2,12.5 32.5,12.5 	"/>
	<path class="st0" d="M13.3,12.5V8.9c0-1.9,1.6-3.5,3.5-3.5h37.6c1.9,0,3.5,1.6,3.5,3.5v12.3"/>
	<path class="st0" d="M14.6,49.8H3.9c-1,0-1.9-0.8-1.9-1.9v-10c0-1,0.8-1.9,1.9-1.9h10.6c1,0,1.9,0.8,1.9,1.9v10
		C16.4,48.9,15.6,49.8,14.6,49.8z"/>
	<path class="st0" d="M4.6,36.1v-4.4c0-1.3,1.1-2.3,2.3-2.3h4.6c1.3,0,2.3,1.1,2.3,2.3v4.4"/>
	<circle class="st0" cx="9.3" cy="41.4" r="2.3"/>
	<line class="st0" x1="9.3" y1="43.7" x2="9.2" y2="46.8"/>
	<polyline class="st0" points="19.6,38.1 28,38.1 28,29.5 	"/>
	<line class="st0" x1="19.6" y1="41.9" x2="45.3" y2="41.9"/>
	<polyline class="st0" points="19.6,45.8 37.5,45.8 37.5,50.2 	"/>
	<circle class="st0" cx="37.5" cy="52.5" r="2.3"/>
	<circle class="st0" cx="28" cy="27.2" r="2.3"/>
	<circle class="st0" cx="47.6" cy="41.9" r="2.3"/>
</g>
</svg>
