<?xml version="1.0" encoding="utf-8"?>
<!-- Generator: Adobe Illustrator 28.2.0, SVG Export Plug-In . SVG Version: 6.00 Build 0)  -->
<svg version="1.0" id="Layer_1" xmlns="http://www.w3.org/2000/svg" xmlns:xlink="http://www.w3.org/1999/xlink" x="0px" y="0px"
	 viewBox="0 0 64 64" style="enable-background:new 0 0 64 64;" xml:space="preserve">
<style type="text/css">
	.st0{fill:none;stroke:#231F20;stroke-width:2;stroke-linecap:round;stroke-linejoin:round;stroke-miterlimit:10;}
</style>
<g>
	<path class="st0" d="M52.5,13c0,0-14.3-1.3-20.5-9.5C25.8,11.7,11.5,13,11.5,13v8.3c0,10.4,4.5,20.4,12.4,27.2l6.7,5.8
		c0.8,0.7,2,0.7,2.8,0l6.7-5.8c7.9-6.8,12.4-16.8,12.4-27.2V13"/>
	<circle class="st0" cx="32" cy="23.3" r="6.2"/>
	<path class="st0" d="M18.1,42.2c0.8-7,6.7-12.3,13.9-12.3s13.1,5.4,13.9,12.3"/>
	<polyline class="st0" points="7.7,40.1 11.8,40.1 15.4,47.1 22.4,47.1 	"/>
	<circle class="st0" cx="4.7" cy="40.1" r="3"/>
	<polyline class="st0" points="13.2,57.5 17.3,57.5 21,50.5 26.2,50.5 	"/>
	<circle class="st0" cx="10.2" cy="57.5" r="3"/>
	<polyline class="st0" points="41.6,47.1 48.6,47.1 52.2,40.1 56.3,40.1 	"/>
	<circle class="st0" cx="59.3" cy="40.1" r="3"/>
	<polyline class="st0" points="37.8,50.5 43,50.5 46.7,57.5 50.8,57.5 	"/>
	<circle class="st0" cx="53.8" cy="57.5" r="3"/>
</g>
</svg>
