<?xml version="1.0" encoding="utf-8"?>
<!-- Generator: Adobe Illustrator 28.2.0, SVG Export Plug-In . SVG Version: 6.00 Build 0)  -->
<svg version="1.0" id="Layer_1" xmlns="http://www.w3.org/2000/svg" xmlns:xlink="http://www.w3.org/1999/xlink" x="0px" y="0px"
	 viewBox="0 0 64 64" style="enable-background:new 0 0 64 64;" xml:space="preserve">
<style type="text/css">
	.st0{fill:none;stroke:#231F20;stroke-width:2;stroke-linecap:round;stroke-linejoin:round;stroke-miterlimit:10;}
</style>
<g>
	<path class="st0" d="M40.4,38.1v11.2v8c0,1.9-1.6,3.5-3.5,3.5H6c-1.9,0-3.5-1.6-3.5-3.5v-8V6.8C2.5,4.8,4,3.3,6,3.3h31
		c1.9,0,3.5,1.6,3.5,3.5v15.6"/>
	<path class="st0" d="M36.9,3.3l-2,5.5c-0.5,1.5-1.9,2.4-3.5,2.4h-20c-1.6,0-3-1-3.5-2.4L6,3.3"/>
	<line class="st0" x1="2.5" y1="49.3" x2="40.4" y2="49.3"/>
	<circle class="st0" cx="52.6" cy="30.2" r="9"/>
	<circle class="st0" cx="55.4" cy="30.2" r="2.9"/>
	<polyline class="st0" points="44.4,33.8 23,33.8 19.3,30.2 23,26.7 27.2,26.7 29.3,28.2 32,26.6 34.4,28.6 37.2,26.7 44.4,26.7 	
		"/>
	<polyline class="st0" points="22.6,23 22.6,19.6 13.4,19.6 	"/>
	<circle class="st0" cx="10.8" cy="19.6" r="2.5"/>
	<circle class="st0" cx="31.8" cy="17.5" r="2.5"/>
	<circle class="st0" cx="10.8" cy="33.9" r="2.5"/>
	<polyline class="st0" points="22.6,37.2 22.6,42.2 10.8,42.2 10.8,36.4 	"/>
	<line class="st0" x1="31.8" y1="23" x2="31.8" y2="20"/>
	<circle class="st0" cx="31.8" cy="43" r="2.5"/>
	<line class="st0" x1="31.8" y1="37.1" x2="31.8" y2="40.4"/>
</g>
</svg>
