<?xml version="1.0" encoding="utf-8"?>
<!-- Generator: Adobe Illustrator 28.2.0, SVG Export Plug-In . SVG Version: 6.00 Build 0)  -->
<svg version="1.0" id="Layer_1" xmlns="http://www.w3.org/2000/svg" xmlns:xlink="http://www.w3.org/1999/xlink" x="0px" y="0px"
	 viewBox="0 0 64 64" style="enable-background:new 0 0 64 64;" xml:space="preserve">
<style type="text/css">
	.st0{fill:none;stroke:#231F20;stroke-width:2;stroke-linecap:round;stroke-linejoin:round;stroke-miterlimit:10;}
</style>
<path class="st0" d="M58.7,42.4H7.1c-1.3,0-2.4-1.1-2.4-2.4V27.6c0-1.3,1.1-2.4,2.4-2.4h51.6c1.3,0,2.4,1.1,2.4,2.4V40
	C61.1,41.3,60,42.4,58.7,42.4z"/>
<path class="st0" d="M14.4,42.4c2.3,4.4,5.5,8.4,9.3,11.7l9.2,8l9.2-8c3.8-3.3,7-7.3,9.3-11.7"/>
<path class="st0" d="M9.6,25.2c0-0.7-0.1-1.4-0.1-2.1v-9.5c0,0,16.3-1.5,23.4-10.8c7.1,9.3,23.4,10.8,23.4,10.8v9.5
	c0,0.7,0,1.4-0.1,2.1"/>
<line class="st0" x1="14.3" y1="30.2" x2="14.3" y2="37.6"/>
<line class="st0" x1="17.2" y1="31.3" x2="11.4" y2="36.5"/>
<line class="st0" x1="11.4" y1="31.3" x2="17.2" y2="36.5"/>
<line class="st0" x1="26.5" y1="30.2" x2="26.5" y2="37.6"/>
<line class="st0" x1="29.3" y1="31.3" x2="23.6" y2="36.5"/>
<line class="st0" x1="23.6" y1="31.3" x2="29.3" y2="36.5"/>
<line class="st0" x1="39.4" y1="30" x2="39.4" y2="37.5"/>
<line class="st0" x1="42.2" y1="31.1" x2="36.5" y2="36.4"/>
<line class="st0" x1="36.5" y1="31.1" x2="42.2" y2="36.4"/>
<line class="st0" x1="51.5" y1="30" x2="51.5" y2="37.5"/>
<line class="st0" x1="54.4" y1="31.1" x2="48.7" y2="36.4"/>
<line class="st0" x1="48.7" y1="31.1" x2="54.4" y2="36.4"/>
</svg>
