<?xml version="1.0" encoding="utf-8"?>
<!-- Generator: Adobe Illustrator 28.2.0, SVG Export Plug-In . SVG Version: 6.00 Build 0)  -->
<svg version="1.0" id="Layer_1" xmlns="http://www.w3.org/2000/svg" xmlns:xlink="http://www.w3.org/1999/xlink" x="0px" y="0px"
	 viewBox="0 0 64 64" style="enable-background:new 0 0 64 64;" xml:space="preserve">
<style type="text/css">
	.st0{fill:none;stroke:#231F20;stroke-width:2;stroke-linecap:round;stroke-linejoin:round;stroke-miterlimit:10;}
</style>
<g>
	<path class="st0" d="M26.9,30.1l-3.2-9H4.9v37.6c0,1.9,1.5,3.4,3.4,3.4h44.7c1.9,0,3.4-1.5,3.4-3.4V30.1h-2.4H26.9z"/>
	<path class="st0" d="M32.9,48.9v5.7c0,1.2-1,2.2-2.2,2.2h0c-1.2,0-2.2-1-2.2-2.2l0-5.7c-2.2-1-3.7-3.5-3.1-6.2c0.5-2,2.1-3.6,4.1-4
		c3.5-0.7,6.6,1.9,6.6,5.3C36.1,46.1,34.8,48,32.9,48.9z"/>
	<path class="st0" d="M39.4,24h12c1.5,0,2.7,1.2,2.7,2.7v3.4"/>
	<line class="st0" x1="29.1" y1="24" x2="24.7" y2="24"/>
	<polyline class="st0" points="29.1,26.1 29.1,12.4 16.8,12.4 	"/>
	<circle class="st0" cx="13.1" cy="12.4" r="3.7"/>
	<circle class="st0" cx="34" cy="5.5" r="3.7"/>
	<polyline class="st0" points="39.4,26.1 39.4,12.4 51.7,12.4 	"/>
	<circle class="st0" cx="55.4" cy="12.4" r="3.7"/>
	<line class="st0" x1="34" y1="26.1" x2="34" y2="9.2"/>
</g>
</svg>
