<?xml version="1.0" encoding="utf-8"?>
<!-- Generator: Adobe Illustrator 28.2.0, SVG Export Plug-In . SVG Version: 6.00 Build 0)  -->
<svg version="1.0" id="Layer_1" xmlns="http://www.w3.org/2000/svg" xmlns:xlink="http://www.w3.org/1999/xlink" x="0px" y="0px"
	 viewBox="0 0 64 64" style="enable-background:new 0 0 64 64;" xml:space="preserve">
<style type="text/css">
	.st0{fill:none;stroke:#231F20;stroke-width:2;stroke-linecap:round;stroke-linejoin:round;stroke-miterlimit:10;}
</style>
<g>
	<path class="st0" d="M43.1,50.9v3c0,1.7-1.4,3-3,3H7.6c-1.7,0-3-1.4-3-3V16.7"/>
	<path class="st0" d="M13.9,7h26.3c1.7,0,3,1.4,3,3v7.5"/>
	<polygon class="st0" points="13.9,7 13.9,16.7 4.6,16.7 	"/>
	<path class="st0" d="M46.5,43.4l-3.3,2.5l-3.3-2.5c-3.7-2.8-5.9-7.1-5.9-11.7v-7.4c0-1.1,0.9-1.9,1.9-1.9h14.7
		c1.1,0,1.9,0.9,1.9,1.9v7.4C52.4,36.3,50.2,40.6,46.5,43.4z"/>
	<polyline class="st0" points="48.4,22.5 48.4,15.8 56.6,15.8 56.6,7.9 	"/>
	<circle class="st0" cx="56.6" cy="5" r="2.9"/>
	<polyline class="st0" points="48.4,41.7 48.4,48.2 56.6,48.2 56.6,56.1 	"/>
	<circle class="st0" cx="56.6" cy="59" r="2.9"/>
	<circle class="st0" cx="43.1" cy="30" r="2.7"/>
	<line class="st0" x1="43.1" y1="32.7" x2="43.1" y2="37.4"/>
	<line class="st0" x1="13.9" y1="23.7" x2="28.5" y2="23.7"/>
	<line class="st0" x1="13.9" y1="29.9" x2="28.5" y2="29.9"/>
	<line class="st0" x1="13.9" y1="36.2" x2="28.5" y2="36.2"/>
	<line class="st0" x1="13.9" y1="42.4" x2="28.5" y2="42.4"/>
</g>
</svg>
