<?xml version="1.0" encoding="utf-8"?>
<!-- Generator: Adobe Illustrator 28.2.0, SVG Export Plug-In . SVG Version: 6.00 Build 0)  -->
<svg version="1.0" id="Layer_1" xmlns="http://www.w3.org/2000/svg" xmlns:xlink="http://www.w3.org/1999/xlink" x="0px" y="0px"
	 viewBox="0 0 64 64" style="enable-background:new 0 0 64 64;" xml:space="preserve">
<style type="text/css">
	.st0{fill:none;stroke:#231F20;stroke-width:2;stroke-linecap:round;stroke-linejoin:round;stroke-miterlimit:10;}
</style>
<g>
	<path class="st0" d="M46.8,32.1H17.2c-1.5,0-2.8-1.2-2.8-2.8v-5.2c0-1.5,1.2-2.8,2.8-2.8h29.6c1.5,0,2.8,1.2,2.8,2.8v5.2
		C49.6,30.9,48.3,32.1,46.8,32.1z"/>
	<path class="st0" d="M46.8,46.8H17.2c-1.5,0-2.8-1.2-2.8-2.8v-5.2c0-1.5,1.2-2.8,2.8-2.8h29.6c1.5,0,2.8,1.2,2.8,2.8V44
		C49.6,45.5,48.3,46.8,46.8,46.8z"/>
	<rect x="19.2" y="32.1" class="st0" width="25.6" height="3.9"/>
	<rect x="19.2" y="46.8" class="st0" width="25.6" height="3.9"/>
	<path class="st0" d="M46.8,61.4H17.2c-1.5,0-2.8-1.2-2.8-2.8v-5.2c0-1.5,1.2-2.8,2.8-2.8h29.6c1.5,0,2.8,1.2,2.8,2.8v5.2
		C49.6,60.2,48.3,61.4,46.8,61.4z"/>
	<path class="st0" d="M35.9,17.6h-7.7c-1,0-1.9-0.8-1.9-1.9V9.3c0-1,0.8-1.9,1.9-1.9h7.7c1,0,1.9,0.8,1.9,1.9v6.5
		C37.8,16.8,36.9,17.6,35.9,17.6z"/>
	<path class="st0" d="M28.9,7.4V5.7c0-1.7,1.4-3.1,3.1-3.1h0c1.7,0,3.1,1.4,3.1,3.1v1.7"/>
	<line class="st0" x1="30.3" y1="11" x2="33.7" y2="11"/>
	<line class="st0" x1="32" y1="11" x2="32" y2="14.5"/>
	<circle class="st0" cx="20.2" cy="26.7" r="2.1"/>
	<line class="st0" x1="36.2" y1="25.3" x2="36.2" y2="28"/>
	<line class="st0" x1="39.2" y1="25.3" x2="39.2" y2="28"/>
	<line class="st0" x1="42.4" y1="25.4" x2="42.4" y2="28.1"/>
	<line class="st0" x1="45.5" y1="25.4" x2="45.5" y2="28.1"/>
	<circle class="st0" cx="20.2" cy="41.4" r="2.1"/>
	<line class="st0" x1="36.2" y1="39.9" x2="36.2" y2="42.7"/>
	<line class="st0" x1="39.2" y1="39.9" x2="39.2" y2="42.7"/>
	<line class="st0" x1="42.4" y1="40" x2="42.4" y2="42.7"/>
	<line class="st0" x1="45.5" y1="40" x2="45.5" y2="42.7"/>
	<circle class="st0" cx="20.2" cy="56" r="2.1"/>
	<line class="st0" x1="36.2" y1="54.6" x2="36.2" y2="57.3"/>
	<line class="st0" x1="39.2" y1="54.6" x2="39.2" y2="57.3"/>
	<line class="st0" x1="42.4" y1="54.7" x2="42.4" y2="57.4"/>
	<line class="st0" x1="45.5" y1="54.7" x2="45.5" y2="57.4"/>
	<polyline class="st0" points="22.9,11 17.6,11 13.6,5.6 7.8,5.6 	"/>
	<polyline class="st0" points="22.9,14.5 14.6,14.5 11.6,19.9 7.8,19.9 	"/>
	<circle class="st0" cx="4.7" cy="5.6" r="3"/>
	<circle class="st0" cx="4.7" cy="19.9" r="3"/>
	<polyline class="st0" points="41.1,11 46.4,11 50.4,5.6 56.2,5.6 	"/>
	<polyline class="st0" points="41.1,14.5 49.4,14.5 52.4,19.9 56.2,19.9 	"/>
	<circle class="st0" cx="59.3" cy="5.6" r="3"/>
	<circle class="st0" cx="59.3" cy="19.9" r="3"/>
</g>
</svg>
