<?xml version="1.0" encoding="utf-8"?>
<!-- Generator: Adobe Illustrator 28.2.0, SVG Export Plug-In . SVG Version: 6.00 Build 0)  -->
<svg version="1.0" id="Layer_1" xmlns="http://www.w3.org/2000/svg" xmlns:xlink="http://www.w3.org/1999/xlink" x="0px" y="0px"
	 viewBox="0 0 64 64" style="enable-background:new 0 0 64 64;" xml:space="preserve">
<style type="text/css">
	.st0{fill:none;stroke:#231F20;stroke-width:2;stroke-linecap:round;stroke-linejoin:round;stroke-miterlimit:10;}
</style>
<g>
	<path class="st0" d="M44.3,41.2h6.6c5.6,0,10.1-4.5,10.1-10.1C61,25.5,56.5,21,50.9,21c-0.5,0-0.9,0-1.4,0.1c0,0,0-0.1,0-0.1
		c0-4.8-3.9-8.7-8.7-8.7c-1.2,0-2.3,0.2-3.3,0.7c-1.5-5.6-6.7-9.7-12.8-9.7c-7.3,0-13.2,5.9-13.2,13.2c0,1.6,0.3,3.1,0.8,4.6
		C7.1,21.4,3,25.8,3,31.1c0,5.6,4.5,10.1,10.1,10.1h3.5"/>
	<path class="st0" d="M34.3,50.2l-3.9,2.7l-3.9-2.7c-3.4-2.4-5.5-6.3-5.5-10.5v-7.6c0-1.5,1.2-2.7,2.7-2.7h13.2
		c1.5,0,2.7,1.2,2.7,2.7v7.6C39.8,43.9,37.8,47.8,34.3,50.2z"/>
	<circle class="st0" cx="30.5" cy="37.9" r="2.8"/>
	<line class="st0" x1="30.5" y1="40.7" x2="30.5" y2="44.8"/>
	<line class="st0" x1="45" y1="45.1" x2="45" y2="52.8"/>
	<circle class="st0" cx="45" cy="56.8" r="4"/>
	<line class="st0" x1="16.6" y1="44.9" x2="16.6" y2="52.6"/>
	<circle class="st0" cx="16.6" cy="56.6" r="4"/>
</g>
</svg>
