<?xml version="1.0" encoding="utf-8"?>
<!-- Generator: Adobe Illustrator 28.2.0, SVG Export Plug-In . SVG Version: 6.00 Build 0)  -->
<svg version="1.0" id="Layer_1" xmlns="http://www.w3.org/2000/svg" xmlns:xlink="http://www.w3.org/1999/xlink" x="0px" y="0px"
	 viewBox="0 0 64 64" style="enable-background:new 0 0 64 64;" xml:space="preserve">
<style type="text/css">
	.st0{fill:none;stroke:#231F20;stroke-width:2;stroke-linecap:round;stroke-linejoin:round;stroke-miterlimit:10;}
</style>
<g>
	<polyline class="st0" points="13.7,28.1 2.4,28.1 2.4,62.7 61.6,62.7 61.6,28.1 50.3,28.1 	"/>
	<polyline class="st0" points="25.5,11.5 32,6.7 38.5,11.5 	"/>
	<line class="st0" x1="61.6" y1="28.1" x2="50.3" y2="20"/>
	<line class="st0" x1="13.7" y1="20" x2="2.4" y2="28.1"/>
	<line class="st0" x1="61.6" y1="62.7" x2="37.9" y2="42"/>
	<line class="st0" x1="26.1" y1="42" x2="2.4" y2="62.7"/>
	<polyline class="st0" points="61.6,28.1 32,45.4 2.4,28.1 	"/>
	<polyline class="st0" points="50.3,34.7 50.3,28.1 50.3,20 50.3,11.5 38.5,11.5 25.5,11.5 13.7,11.5 13.7,20 13.7,28.1 13.7,34.7 	
		"/>
	<path class="st0" d="M36.5,36.1h-9c-1.2,0-2.2-1-2.2-2.2v-7.5c0-1.2,1-2.2,2.2-2.2h9c1.2,0,2.2,1,2.2,2.2v7.5
		C38.7,35.1,37.7,36.1,36.5,36.1z"/>
	<path class="st0" d="M28.4,24.1v-2c0-2,1.6-3.6,3.6-3.6h0c2,0,3.6,1.6,3.6,3.6v2"/>
	<line class="st0" x1="30" y1="28.4" x2="34" y2="28.4"/>
	<line class="st0" x1="32" y1="28.4" x2="32" y2="32.4"/>
	<polyline class="st0" points="23.1,21.4 23.1,14.2 20,12.2 20,6.9 	"/>
	<circle class="st0" cx="20" cy="4.1" r="2.8"/>
	<polyline class="st0" points="41.5,21.4 41.5,14.2 44.6,12.2 44.6,6.9 	"/>
	<circle class="st0" cx="44.6" cy="4.1" r="2.8"/>
	<circle class="st0" cx="56.2" cy="9.6" r="2.8"/>
	<polyline class="st0" points="44.8,18 56.2,18 56.2,12.4 	"/>
	<circle class="st0" cx="7.8" cy="9.6" r="2.8"/>
	<polyline class="st0" points="19.2,18 7.8,18 7.8,12.4 	"/>
</g>
</svg>
