<?xml version="1.0" encoding="utf-8"?>
<!-- Generator: Adobe Illustrator 28.2.0, SVG Export Plug-In . SVG Version: 6.00 Build 0)  -->
<svg version="1.0" id="Layer_1" xmlns="http://www.w3.org/2000/svg" xmlns:xlink="http://www.w3.org/1999/xlink" x="0px" y="0px"
	 viewBox="0 0 64 64" style="enable-background:new 0 0 64 64;" xml:space="preserve">
<style type="text/css">
	.st0{fill:none;stroke:#231F20;stroke-width:2;stroke-linecap:round;stroke-linejoin:round;stroke-miterlimit:10;}
</style>
<circle class="st0" cx="32" cy="26.6" r="12.8"/>
<rect x="28.8" y="45.7" class="st0" width="6.3" height="16.1"/>
<line class="st0" x1="30.3" y1="45.7" x2="30.3" y2="39.3"/>
<line class="st0" x1="33.7" y1="45.7" x2="33.7" y2="39.3"/>
<path class="st0" d="M38.7,22c0,0-4.6-0.4-6.7-3.1c-2,2.7-6.7,3.1-6.7,3.1v2.7c0,3.4,1.5,6.6,4,8.9l2.6,2.3l2.6-2.3
	c2.6-2.2,4-5.5,4-8.9V22"/>
<circle class="st0" cx="32" cy="26.1" r="1.9"/>
<line class="st0" x1="32" y1="28" x2="32" y2="31.5"/>
<polyline class="st0" points="37.5,17.3 37.5,12.1 53.5,12.1 53.5,7.4 "/>
<circle class="st0" cx="53.5" cy="4.6" r="2.8"/>
<circle class="st0" cx="59.8" cy="35.6" r="2.8"/>
<circle class="st0" cx="44.3" cy="50.9" r="2.8"/>
<polyline class="st0" points="26.5,17.3 26.5,12.1 10.5,12.1 10.5,7.4 "/>
<circle class="st0" cx="10.5" cy="4.6" r="2.8"/>
<polyline class="st0" points="41.3,29.8 50.7,29.8 50.7,35.8 57,35.8 "/>
<polyline class="st0" points="39.6,34.7 39.6,40.3 44.3,40.3 44.3,48.1 "/>
<circle class="st0" cx="4.2" cy="35.6" r="2.8"/>
<circle class="st0" cx="19.7" cy="50.9" r="2.8"/>
<polyline class="st0" points="22.7,29.8 13.3,29.8 13.3,35.8 7,35.8 "/>
<polyline class="st0" points="24.4,34.7 24.4,40.3 19.7,40.3 19.7,48.1 "/>
</svg>
