<?xml version="1.0" encoding="utf-8"?>
<!-- Generator: Adobe Illustrator 28.2.0, SVG Export Plug-In . SVG Version: 6.00 Build 0)  -->
<svg version="1.0" id="Layer_1" xmlns="http://www.w3.org/2000/svg" xmlns:xlink="http://www.w3.org/1999/xlink" x="0px" y="0px"
	 viewBox="0 0 64 64" style="enable-background:new 0 0 64 64;" xml:space="preserve">
<style type="text/css">
	.st0{fill:none;stroke:#231F20;stroke-width:2;stroke-linecap:round;stroke-linejoin:round;stroke-miterlimit:10;}
</style>
<g>
	<path class="st0" d="M57.6,42.8c2,0,3.5-1.6,3.5-3.5V21.5v-9.2V8.1c0-2-1.6-3.5-3.5-3.5H6.4c-2,0-3.6,1.6-3.6,3.5v4.2v9.2v17.8
		c0,2,1.6,3.5,3.6,3.5h22"/>
	<rect x="2.9" y="12.3" class="st0" width="58.3" height="9.2"/>
	<path class="st0" d="M17,35.5H10c-0.8,0-1.5-0.7-1.5-1.5v-3.6c0-0.8,0.7-1.5,1.5-1.5H17c0.8,0,1.5,0.7,1.5,1.5v3.6
		C18.5,34.9,17.8,35.5,17,35.5z"/>
	<path class="st0" d="M52.9,34.8c0,0-6.9-0.6-9.9-4.6c-3,4-9.9,4.6-9.9,4.6v4c0,5.1,2.2,9.9,6,13.2l3.9,3.4l3.9-3.4
		c3.8-3.3,6-8.1,6-13.2V34.8"/>
	<circle class="st0" cx="42.9" cy="40.9" r="2.9"/>
	<line class="st0" x1="42.9" y1="43.8" x2="42.9" y2="49.1"/>
	<line class="st0" x1="37.7" y1="56.4" x2="29.9" y2="56.4"/>
	<circle class="st0" cx="26.9" cy="56.4" r="3"/>
	<circle class="st0" cx="57.9" cy="56.4" r="3"/>
	<line class="st0" x1="48.5" y1="56.4" x2="54.9" y2="56.4"/>
</g>
</svg>
