<?xml version="1.0" encoding="utf-8"?>
<!-- Generator: Adobe Illustrator 28.2.0, SVG Export Plug-In . SVG Version: 6.00 Build 0)  -->
<svg version="1.0" id="Layer_1" xmlns="http://www.w3.org/2000/svg" xmlns:xlink="http://www.w3.org/1999/xlink" x="0px" y="0px"
	 viewBox="0 0 64 64" style="enable-background:new 0 0 64 64;" xml:space="preserve">
<style type="text/css">
	.st0{fill:none;stroke:#231F20;stroke-width:2;stroke-linecap:round;stroke-linejoin:round;stroke-miterlimit:10;}
</style>
<g>
	<ellipse class="st0" cx="32" cy="9.5" rx="24.8" ry="5.3"/>
	<path class="st0" d="M56.8,19.9c0,3-11.1,5.3-24.8,5.3S7.2,22.8,7.2,19.9"/>
	<path class="st0" d="M7.2,30.3c0,2.4,7.1,4.3,16.9,5.1"/>
	<path class="st0" d="M40,35.4c9.8-0.7,16.9-2.7,16.9-5.1"/>
	<path class="st0" d="M56.8,9.5v10.4v10.4v10.4c0,2-5,3.7-12.4,4.6"/>
	<path class="st0" d="M7.2,9.5v10.4v10.4v10.4c0,2,5,3.7,12.4,4.6"/>
	<path class="st0" d="M41.9,39.3c0,0-6.9-0.6-9.9-4.6c-3,4-9.9,4.6-9.9,4.6v4c0,5.1,2.2,9.9,6,13.2l3.9,3.4l3.9-3.4
		c3.8-3.3,6-8.1,6-13.2V39.3"/>
	<line class="st0" x1="42.6" y1="55.1" x2="54" y2="55.1"/>
	<circle class="st0" cx="58.3" cy="55.1" r="4.2"/>
	<line class="st0" x1="21.4" y1="55.1" x2="10" y2="55.1"/>
	<circle class="st0" cx="5.7" cy="55.1" r="4.2"/>
	<circle class="st0" cx="32" cy="45.4" r="2.9"/>
	<line class="st0" x1="32" y1="48.2" x2="32" y2="53.5"/>
</g>
</svg>
