<?xml version="1.0" encoding="utf-8"?>
<!-- Generator: Adobe Illustrator 28.2.0, SVG Export Plug-In . SVG Version: 6.00 Build 0)  -->
<svg version="1.0" id="Layer_1" xmlns="http://www.w3.org/2000/svg" xmlns:xlink="http://www.w3.org/1999/xlink" x="0px" y="0px"
	 viewBox="0 0 64 64" style="enable-background:new 0 0 64 64;" xml:space="preserve">
<style type="text/css">
	.st0{fill:none;stroke:#231F20;stroke-width:2;stroke-linecap:round;stroke-linejoin:round;stroke-miterlimit:10;}
</style>
<g>
	<path class="st0" d="M15.7,23.1l-4.9-4.9l7.5-7.5l4.9,4.9c1.1-0.6,2.3-1.1,3.6-1.5V7.3h10.5v6.9c1.3,0.4,2.5,0.9,3.6,1.5l4.9-4.9
		l7.5,7.5l-4.9,4.9c0.6,1.1,1.1,2.3,1.5,3.6h6.9v10.5h-6.9c-0.4,1.3-0.9,2.5-1.5,3.6l4.9,4.9l-7.5,7.5l-4.9-4.9
		c-1.1,0.6-2.3,1.1-3.6,1.5v6.9H26.7v-6.9c-1.3-0.4-2.5-0.9-3.6-1.5l-4.9,4.9l-7.5-7.5l4.9-4.9c-0.6-1.1-1.1-2.3-1.5-3.6H7.3V26.7
		h6.9C14.6,25.5,15.1,24.3,15.7,23.1z"/>
	<circle class="st0" cx="32" cy="32" r="13.3"/>
	<path class="st0" d="M30.1,32.5v6.3h3.9v-6.3c1.5-0.8,2.3-2.5,1.9-4.4c-0.3-1.4-1.5-2.5-2.9-2.8c-2.6-0.6-4.9,1.3-4.9,3.8
		C28.1,30.6,28.9,31.9,30.1,32.5z"/>
	<polyline class="st0" points="52.6,23.2 58.8,23.2 58.8,15.5 	"/>
	<circle class="st0" cx="58.8" cy="12.4" r="3.1"/>
	<polyline class="st0" points="52.6,40.8 58.8,40.8 58.8,48.5 	"/>
	<circle class="st0" cx="58.8" cy="51.6" r="3.1"/>
	<polyline class="st0" points="11.4,23.2 5.2,23.2 5.2,15.5 	"/>
	<circle class="st0" cx="5.2" cy="12.4" r="3.1"/>
	<polyline class="st0" points="11.4,40.8 5.2,40.8 5.2,48.5 	"/>
	<circle class="st0" cx="5.2" cy="51.6" r="3.1"/>
</g>
</svg>
