<?xml version="1.0" encoding="utf-8"?>
<!-- Generator: Adobe Illustrator 28.2.0, SVG Export Plug-In . SVG Version: 6.00 Build 0)  -->
<svg version="1.0" id="Layer_1" xmlns="http://www.w3.org/2000/svg" xmlns:xlink="http://www.w3.org/1999/xlink" x="0px" y="0px"
	 viewBox="0 0 64 64" style="enable-background:new 0 0 64 64;" xml:space="preserve">
<style type="text/css">
	.st0{fill:none;stroke:#231F20;stroke-width:2;stroke-linecap:round;stroke-linejoin:round;stroke-miterlimit:10;}
</style>
<g>
	<path class="st0" d="M25,20.9H11.8c-1.7,0-3.2,1.4-3.2,3.2v28.2h46.7V24.1c0-1.7-1.4-3.2-3.2-3.2H39"/>
	<path class="st0" d="M58.9,61.2H5.1c-1.7,0-3-1.3-3-3v-2.9c0-1.7,1.3-3,3-3h53.9c1.7,0,3,1.3,3,3v2.9
		C61.9,59.9,60.6,61.2,58.9,61.2z"/>
	<path class="st0" d="M39.9,31c0,0-5.5-0.5-7.9-3.7c-2.4,3.1-7.9,3.7-7.9,3.7v3.2c0,4,1.8,7.9,4.8,10.5l3.1,2.7l3.1-2.7
		c3-2.6,4.8-6.5,4.8-10.5V31"/>
	<circle class="st0" cx="32" cy="35.8" r="2.3"/>
	<line class="st0" x1="32" y1="38.1" x2="32" y2="42.3"/>
	<rect x="24.9" y="52.3" class="st0" width="14.1" height="4.5"/>
	<polyline class="st0" points="25,27.3 25,16.2 16.3,16.2 16.3,8.3 	"/>
	<circle class="st0" cx="16.3" cy="5.5" r="2.7"/>
	<circle class="st0" cx="32" cy="9.5" r="2.7"/>
	<polyline class="st0" points="39,27.3 39,16.2 47.7,16.2 47.7,8.3 	"/>
	<circle class="st0" cx="47.7" cy="5.5" r="2.7"/>
	<line class="st0" x1="32" y1="24.5" x2="32" y2="12.2"/>
</g>
</svg>
