<svg width="252" height="246" viewBox="0 0 252 246" fill="none" xmlns="http://www.w3.org/2000/svg">
<path shape-rendering="geometricPrecision" d="M52.3715 32.6975C52.3451 32.6975 52.3198 32.6871 52.3011 32.6684L24.8559 5.22314C23.0137 3.38094 24.3184 0.231079 26.9237 0.231079H128.587C196.208 0.231079 251.025 55.0486 251.025 122.669C251.025 190.29 196.208 245.108 128.587 245.108H3.23898C1.62394 245.108 0.314695 243.799 0.314695 242.184V131.918C0.314695 129.313 3.46457 128.008 5.30676 129.85L31.9247 156.468C32.4731 157.016 32.7812 157.76 32.7812 158.536V209.717C32.7812 211.332 34.0904 212.641 35.7054 212.641H128.587C178.277 212.641 218.559 172.36 218.559 122.669C218.559 114.837 217.558 107.239 215.678 99.9953C215.127 97.874 212.497 97.227 210.947 98.7768L118.91 190.814C117.768 191.956 115.917 191.956 114.775 190.814L1.16705 77.206C0.618639 76.6576 0.310547 75.9137 0.310547 75.1382V33.6663C0.310547 31.061 3.46041 29.7563 5.3026 31.5985L114.775 141.071C115.917 142.213 117.768 142.213 118.91 141.071L194.489 65.492C195.576 64.4047 195.639 62.6573 194.594 61.5295C178.161 43.7966 154.67 32.6975 128.587 32.6975H109.215C106.61 32.6975 105.305 35.8474 107.148 37.6896L142.163 72.7049C143.305 73.8469 143.305 75.6985 142.163 76.8405L121.427 97.5764C120.285 98.7184 118.433 98.7184 117.291 97.5764L52.4418 32.7267C52.4232 32.708 52.3979 32.6975 52.3715 32.6975Z" fill="white"/>
</svg>
