<svg width="33" height="32" viewBox="0 0 33 32" fill="none" xmlns="http://www.w3.org/2000/svg">
<path fill-rule="evenodd" clip-rule="evenodd" d="M6.80321 4.24265C6.79977 4.24265 6.79646 4.24128 6.79402 4.23884L3.20754 0.652352C2.9668 0.411618 3.1373 0 3.47775 0H4.24319H16.7629C25.5995 0 32.7629 7.16344 32.7629 16C32.7629 24.8366 25.5995 32 16.7629 32H4.24319H0.382681C0.171632 32 0.000542102 31.8289 0.000542102 31.6179V27.7573V17.2086C0.000542102 16.8681 0.412161 16.6976 0.652895 16.9383L4.13127 20.4167C4.20293 20.4884 4.24319 20.5856 4.24319 20.6869V27.3752C4.24319 27.5863 4.41428 27.7573 4.62533 27.7573H16.7629C23.2563 27.7573 28.5203 22.4934 28.5203 16C28.5203 14.9765 28.3895 13.9836 28.1437 13.037C28.0718 12.7598 27.7281 12.6752 27.5255 12.8777L15.4984 24.9049C15.3491 25.0542 15.1072 25.0542 14.9579 24.9049L0.111926 10.0589C0.0402609 9.98725 0 9.89006 0 9.78871V4.36924C0 4.0288 0.411617 3.8583 0.652351 4.09903L14.9579 18.4046C15.1072 18.5539 15.3491 18.5539 15.4984 18.4046L25.3748 8.52816C25.5169 8.38607 25.5252 8.15773 25.3886 8.01035C23.2411 5.69306 20.1714 4.24265 16.7629 4.24265H14.2315C13.891 4.24265 13.7205 4.65427 13.9613 4.895L18.537 9.47071C18.6862 9.61994 18.6862 9.8619 18.537 10.0111L15.8272 12.7209C15.678 12.8701 15.436 12.8701 15.2868 12.7209L6.81241 4.24646C6.80997 4.24402 6.80666 4.24265 6.80321 4.24265V4.24265Z" fill="black"/>
</svg>
