<svg width="133" height="32" viewBox="0 0 133 32" fill="none" xmlns="http://www.w3.org/2000/svg">
<path fill-rule="evenodd" clip-rule="evenodd" d="M6.80321 4.24265C6.79977 4.24265 6.79646 4.24128 6.79402 4.23884L3.20754 0.652352C2.9668 0.411618 3.1373 0 3.47775 0H4.24319H16.7629C25.5995 0 32.7629 7.16344 32.7629 16C32.7629 24.8366 25.5995 32 16.7629 32H4.24319H0.382681C0.171632 32 0.000542102 31.8289 0.000542102 31.6179V27.7573V17.2086C0.000542102 16.8681 0.412161 16.6976 0.652895 16.9383L4.13127 20.4167C4.20293 20.4884 4.24319 20.5856 4.24319 20.6869V27.3752C4.24319 27.5863 4.41428 27.7573 4.62533 27.7573H16.7629C23.2563 27.7573 28.5203 22.4934 28.5203 16C28.5203 14.9765 28.3895 13.9836 28.1437 13.037C28.0718 12.7598 27.7281 12.6752 27.5255 12.8777L15.4984 24.9049C15.3491 25.0542 15.1072 25.0542 14.9579 24.9049L0.111926 10.0589C0.0402609 9.98725 0 9.89006 0 9.78871V4.36924C0 4.0288 0.411617 3.8583 0.652351 4.09903L14.9579 18.4046C15.1072 18.5539 15.3491 18.5539 15.4984 18.4046L25.3748 8.52816C25.5169 8.38607 25.5252 8.15773 25.3886 8.01035C23.2411 5.69306 20.1714 4.24265 16.7629 4.24265H14.2315C13.891 4.24265 13.7205 4.65427 13.9613 4.895L18.537 9.47071C18.6862 9.61994 18.6862 9.8619 18.537 10.0111L15.8272 12.7209C15.678 12.8701 15.436 12.8701 15.2868 12.7209L6.81241 4.24646C6.80997 4.24402 6.80666 4.24265 6.80321 4.24265V4.24265Z" fill="black"/>
<path d="M59.4766 15.5348C59.4766 21.3428 56.7982 25.9384 49.5524 25.9384H43.8008V5.61053H49.5524C56.6854 5.61053 59.4766 9.81144 59.4766 15.5348ZM57.2211 15.5348C57.2211 10.1498 54.7118 7.58411 49.5524 7.58411H45.9999V23.9648H49.5524C54.74 23.9648 57.2211 21.1454 57.2211 15.5348Z" fill="black"/>
<path d="M75.2736 19.0027H64.137C64.2498 22.7525 65.293 24.5569 68.8454 24.5569C71.0445 24.5569 72.3696 23.8238 73.1027 22.3578L75.0199 23.119C74.0049 25.2053 72.2569 26.3895 68.8454 26.3895C63.996 26.3895 61.7969 23.9648 61.7969 18.3542C61.7969 13.2793 63.5449 10.3471 68.8736 10.3471C74.5406 10.3471 75.2736 14.0969 75.2736 18.3542V19.0027ZM72.9899 17.1419C72.9899 14.0969 72.2569 12.1797 68.8736 12.1797C65.9132 12.1797 64.3626 13.3921 64.137 17.1419H72.9899Z" fill="black"/>
<path d="M95.6922 5.61053L88.3336 25.9384H84.471L77.1406 5.61053H81.1159L86.0217 19.9895C86.2191 20.5251 86.3882 21.23 86.4446 21.5965C86.501 21.2018 86.6702 20.497 86.8393 19.9895L91.7733 5.61053H95.6922Z" fill="black"/>
<path d="M112.449 12.067C112.449 15.7322 110.137 18.8617 104.893 18.8617H101.594C101.651 19.0591 101.792 19.3974 101.792 19.5947V25.9384H98.0136V5.61053H104.893C110.081 5.61053 112.449 8.37354 112.449 12.067ZM108.615 12.067C108.615 9.89602 107.374 8.82465 104.893 8.82465H101.792V15.6476H104.893C107.43 15.6476 108.615 14.3789 108.615 12.067Z" fill="black"/>
<path d="M132.358 25.9384H129.116L119.135 12.3489C119.219 12.6308 119.248 12.941 119.248 13.1665V25.9384H115.47V5.61053H118.712L128.721 19.2564C128.608 18.8617 128.58 18.4388 128.58 18.0159V5.61053H132.358V25.9384Z" fill="black"/>
</svg>
