<svg width="28" height="35" viewBox="0 0 28 35" fill="none" xmlns="http://www.w3.org/2000/svg">
<path fill-rule="evenodd" clip-rule="evenodd" d="M10.4018 2.11329C8.48578 3.16721 6.91821 4.05905 6.91854 4.09532C6.9194 4.18894 11.517 6.64763 11.6802 6.64164C11.7545 6.63901 12.293 6.37726 12.8768 6.06005L13.9386 5.48339L15.0982 6.11277L16.2577 6.74227L18.1566 5.84127C21.0179 4.4836 21.3151 4.33482 21.2685 4.28484C21.2067 4.21852 20.1804 3.63634 17.396 2.08845C16.0503 1.34034 14.7443 0.606837 14.4935 0.458414C14.2428 0.30999 14.0035 0.190593 13.9617 0.192904C13.9199 0.195215 12.3179 1.05939 10.4018 2.11329ZM1.99815 6.70843L0.0035984 7.79632V12.5709C0.0035984 15.1969 0.0297889 17.3454 0.0619148 17.3454C0.0939295 17.3454 1.07526 16.8962 2.24259 16.3472L4.36501 15.349V10.3163L5.40217 10.913C6.20139 11.3723 7.00109 11.8308 7.80127 12.2883L9.16317 13.0669L9.76919 12.7775C10.1493 12.5958 10.5286 12.4122 10.9071 12.2269C11.1996 12.0831 11.9177 11.7416 12.5027 11.4679C13.0878 11.1941 13.6293 10.9187 13.7061 10.856C13.8082 10.7726 12.5642 10.0468 9.10519 8.17112C6.49783 6.75727 4.28088 5.60498 4.17864 5.61051C4.0764 5.61603 3.09518 6.11003 1.99815 6.70843ZM21.6279 7.01393C20.2695 7.66149 19.1571 8.21719 19.1559 8.24888C19.1547 8.28053 19.8951 8.74538 20.8013 9.28173C21.7074 9.81819 22.4488 10.2858 22.4488 10.321C22.4488 10.3561 21.647 10.7664 20.667 11.2329C19.687 11.6992 17.2098 12.8805 15.1621 13.858L8.30089 17.1328C6.57495 17.9567 5.01922 18.6993 4.84371 18.7832C1.31839 20.4684 0.349416 20.936 0.216349 21.0163C0.0825407 21.0971 0.0522325 21.5665 0.0284163 23.9229L0 26.7332L1.78362 27.6929L3.56721 28.6525L6.04042 27.4739C7.40073 26.8257 8.51364 26.2614 8.51364 26.2198C8.51364 26.1784 8.26227 26.0054 7.95518 25.8353C7.64795 25.6653 7.01374 25.2887 6.54568 24.9985C6.07767 24.7082 5.61099 24.4418 5.50853 24.4065C5.4061 24.3713 5.32378 24.3097 5.32545 24.2695C5.32716 24.2294 6.41625 23.6831 7.74551 23.0555C10.3273 21.8366 12.3032 20.8971 16.545 18.8715C18.4418 17.966 20.3388 17.061 22.2361 16.1565C23.9035 15.3618 25.8422 14.4336 26.5443 14.0939L27.8208 13.4763L27.8492 10.6339L27.8777 7.79162L26.0687 6.81114C25.0736 6.27193 24.2232 5.83206 24.1786 5.83367C24.134 5.83516 22.9862 6.36622 21.6279 7.01393ZM27.3361 17.2681C27.0695 17.4056 26.543 17.6631 26.166 17.8402C25.789 18.0173 25.0736 18.3581 24.5763 18.5977L23.6721 19.0332L23.6515 21.5285C23.6401 22.9009 23.5923 24.0177 23.5451 24.0105C23.4381 23.9937 21.7435 23.076 20.04 22.1121C18.8105 21.4165 18.7332 21.3889 18.4443 21.5399C18.2773 21.6273 17.279 22.1001 16.2259 22.5907C15.1727 23.0813 14.2768 23.5147 14.2346 23.5539C14.1926 23.5931 16.3121 24.8062 18.9448 26.2497L23.7314 28.8744L25.7761 27.7575C26.9006 27.1433 27.8568 26.583 27.9009 26.5125C28 26.3541 27.9915 16.9964 27.8923 17.009C27.853 17.014 27.6027 17.1306 27.3361 17.2681ZM16.0131 28.2517C15.6584 28.4127 15.3039 28.5739 14.9494 28.7354C13.8789 29.2244 14.0887 29.2407 12.8151 28.5712C11.9669 28.1254 11.6013 27.9878 11.4426 28.0546C11.3235 28.1046 10.299 28.5913 9.16573 29.1361C8.03249 29.6809 7.06597 30.1266 7.01789 30.1266C6.54242 30.1266 7.33288 30.6253 10.3831 32.25L13.9603 34.1552L15.4654 33.3706C16.2932 32.939 17.9629 32.0749 19.1759 31.4502C20.3887 30.8254 21.3661 30.298 21.3479 30.2781C21.3294 30.2583 20.3131 29.7072 19.0893 29.0535L16.8641 27.8651L16.0131 28.2517Z" fill="#181818"/>
</svg>
