<svg width="200" height="60" viewBox="0 0 133 32" fill="none" xmlns="http://www.w3.org/2000/svg">
<path shape-rendering="geometricPrecision" d="M7.1245 4.24265C7.12106 4.24265 7.11775 4.24128 7.11531 4.23884L3.52883 0.652352C3.28809 0.411618 3.45859 0 3.79904 0H17.0842C25.9208 0 33.0842 7.16345 33.0842 16C33.0842 24.8366 25.9207 32 17.0842 32H0.70397C0.492921 32 0.321831 31.8289 0.321831 31.6179V17.2086C0.321831 16.8681 0.73345 16.6976 0.974184 16.9383L4.45256 20.4167C4.52422 20.4884 4.56448 20.5856 4.56448 20.6869V27.3752C4.56448 27.5863 4.73557 27.7573 4.94662 27.7573H17.0842C23.5776 27.7573 28.8415 22.4934 28.8415 16C28.8415 14.9765 28.7108 13.9836 28.465 13.037C28.393 12.7598 28.0493 12.6752 27.8468 12.8777L15.8197 24.9049C15.6704 25.0542 15.4285 25.0542 15.2792 24.9049L0.433215 10.0589C0.36155 9.98725 0.321289 9.89006 0.321289 9.78871V4.36925C0.321289 4.0288 0.732906 3.8583 0.97364 4.09903L15.2792 18.4046C15.4285 18.5539 15.6704 18.5539 15.8197 18.4046L25.6961 8.52816C25.8382 8.38607 25.8464 8.15773 25.7099 8.01035C23.5624 5.69306 20.4927 4.24265 17.0842 4.24265H14.5528C14.2123 4.24265 14.0418 4.65427 14.2825 4.895L18.8583 9.47073C19.0075 9.61996 19.0075 9.86192 18.8583 10.0112L16.1485 12.7209C15.9993 12.8701 15.7574 12.8701 15.6081 12.7209L7.1337 4.24646C7.13126 4.24402 7.12795 4.24265 7.1245 4.24265Z" fill="#181818"/>
<path shape-rendering="geometricPrecision" d="M59.7979 15.5348C59.7979 21.3428 57.1195 25.9384 49.8736 25.9384H44.1221V5.61053H49.8736C57.0067 5.61053 59.7979 9.81144 59.7979 15.5348ZM57.5424 15.5348C57.5424 10.1498 55.0331 7.58411 49.8736 7.58411H46.3212V23.9648H49.8736C55.0613 23.9648 57.5424 21.1454 57.5424 15.5348Z" fill="#181818"/>
<path shape-rendering="geometricPrecision" d="M75.5949 19.0027H64.4583C64.5711 22.7525 65.6142 24.5569 69.1667 24.5569C71.3658 24.5569 72.6909 23.8238 73.424 22.3578L75.3412 23.119C74.3262 25.2053 72.5782 26.3895 69.1667 26.3895C64.3173 26.3895 62.1182 23.9648 62.1182 18.3542C62.1182 13.2793 63.8662 10.3471 69.1949 10.3471C74.8619 10.3471 75.5949 14.0969 75.5949 18.3542V19.0027ZM73.3112 17.1419C73.3112 14.0969 72.5782 12.1797 69.1949 12.1797C66.2345 12.1797 64.6838 13.3921 64.4583 17.1419H73.3112Z" fill="#181818"/>
<path shape-rendering="geometricPrecision" d="M96.0135 5.61053L88.6549 25.9384H84.7923L77.4619 5.61053H81.4372L86.343 19.9895C86.5403 20.5251 86.7095 21.23 86.7659 21.5965C86.8223 21.2018 86.9915 20.497 87.1606 19.9895L92.0946 5.61053H96.0135Z" fill="#181818"/>
<path shape-rendering="geometricPrecision" d="M112.77 12.067C112.77 15.7322 110.458 18.8617 105.214 18.8617H101.916C101.972 19.0591 102.113 19.3974 102.113 19.5947V25.9384H98.3349V5.61053H105.214C110.402 5.61053 112.77 8.37354 112.77 12.067ZM108.936 12.067C108.936 9.89602 107.695 8.82465 105.214 8.82465H102.113V15.6476H105.214C107.752 15.6476 108.936 14.3789 108.936 12.067Z" fill="#181818"/>
<path shape-rendering="geometricPrecision" d="M132.679 25.9384H129.437L119.456 12.3489C119.541 12.6308 119.569 12.941 119.569 13.1665V25.9384H115.791V5.61053H119.033L129.042 19.2564C128.929 18.8617 128.901 18.4388 128.901 18.0159V5.61053H132.679V25.9384Z" fill="#181818"/>
</svg>
