<svg width="27" height="28" viewBox="0 0 27 28" fill="none" xmlns="http://www.w3.org/2000/svg">
<g clip-path="url(#clip0_151_577)">
<path d="M5.62238 13.0128C5.62238 12.3897 6.1343 11.8777 6.75638 11.8777H8.66906C9.29222 11.8777 9.82574 12.3897 9.82574 13.0355V20.2488C10.0482 20.1819 10.315 20.1149 10.6271 20.0479C11.0494 19.9367 11.3615 19.5587 11.3615 19.1127V10.1627C11.3615 9.53953 11.8734 9.00493 12.5182 9.00493H14.4309C15.054 9.00493 15.5875 9.51685 15.5875 10.1627V18.4679C15.5875 18.4679 16.0552 18.267 16.5217 18.0672C16.8781 17.9117 17.1006 17.578 17.1006 17.1762V7.26937C17.1006 6.64621 17.6125 6.11161 18.2357 6.11161H20.1484C20.7715 6.11161 21.2835 6.62353 21.2835 7.26937V15.4407C22.9294 14.2386 24.6207 12.7914 25.9555 11.0548C26.3562 10.5429 26.4675 9.87433 26.245 9.25117C23.7977 2.21605 16.1016 -1.52507 9.0719 0.924371C2.04218 3.37381 -1.69462 11.0764 0.751581 18.1126C1.01834 18.9139 1.37474 19.671 1.79702 20.4054C2.13074 20.9843 2.7539 21.318 3.42134 21.2511C3.77774 21.2284 4.2227 21.1841 4.77782 21.1171C5.26706 21.0729 5.62346 20.6495 5.62346 20.1592L5.62238 13.0128Z" fill="#181818"/>
<path d="M5.57715 24.5906C11.6057 28.9764 20.0373 27.6405 24.4188 21.6076C26.0874 19.2921 26.9989 16.5089 26.9989 13.6599C26.9989 13.3478 26.9763 13.0367 26.9547 12.7246C22.0396 20.0934 12.9406 23.544 5.57715 24.5906Z" fill="#181818"/>
</g>
<defs>
<clipPath id="clip0_151_577">
<rect width="27" height="27" fill="white" transform="translate(0 0.172852)"/>
</clipPath>
</defs>
</svg>
