<svg width="451" height="113" viewBox="0 0 451 113" fill="none" xmlns="http://www.w3.org/2000/svg">
<g clip-path="url(#clip0_426_9129)">
<path d="M162.141 84.169H137.357V81.791C137.357 81.055 137.609 80.435 138.106 79.931C138.61 79.427 139.23 79.182 139.966 79.182H162.536C165.649 79.182 168.579 78.589 171.324 77.397C174.069 76.212 176.474 74.583 178.532 72.526C180.59 70.469 182.218 68.05 183.403 65.277C184.588 62.504 185.188 59.561 185.188 56.448C185.188 53.28 184.595 50.324 183.403 47.578C182.218 44.833 180.589 42.435 178.532 40.37C176.475 38.306 174.07 36.698 171.324 35.54C168.579 34.382 165.649 33.796 162.536 33.796H139.966C139.223 33.796 138.603 33.53 138.106 33.006C137.602 32.481 137.357 31.848 137.357 31.105V28.727H162.141C166.045 28.673 169.703 29.374 173.109 30.825C176.515 32.276 179.486 34.272 182.02 36.806C184.554 39.34 186.544 42.297 188.001 45.676C189.452 49.055 190.181 52.645 190.181 56.447C190.181 60.194 189.466 63.743 188.042 67.095C186.618 70.447 184.649 73.39 182.142 75.924C179.635 78.458 176.678 80.468 173.272 81.939C169.859 83.433 166.153 84.169 162.141 84.169Z" fill="#181818"/>
<path d="M207.594 28.742H259.144V31.12C259.144 31.863 258.892 32.483 258.395 32.98C257.891 33.484 257.271 33.729 256.535 33.729H208.466C207.887 33.729 207.594 33.463 207.594 32.939V28.742ZM254.076 56.299C254.076 57.042 253.824 57.675 253.327 58.2C252.823 58.731 252.203 58.99 251.467 58.99H207.594V54.712C207.594 54.235 207.86 53.997 208.384 53.997H254.076V56.299ZM207.594 84.169V79.891C207.594 79.414 207.832 79.176 208.309 79.176H257.325C258.061 79.176 258.681 79.428 259.185 79.925C259.689 80.429 259.934 81.049 259.934 81.785V84.163H207.593L207.594 84.169Z" fill="#181818"/>
<path d="M284.323 67.069L264.846 28.742H268.014C268.804 28.742 269.547 28.953 270.235 29.376C270.923 29.798 271.448 30.377 271.816 31.12C273.662 34.71 275.27 37.864 276.646 40.583C278.015 43.301 279.221 45.665 280.25 47.668C281.279 49.678 282.137 51.354 282.825 52.696C283.513 54.045 284.092 55.162 284.569 56.061C284.882 56.695 285.216 57.355 285.557 58.043C285.898 58.731 286.122 59.181 286.231 59.392C286.599 60.026 286.769 60.7 286.749 61.409C286.722 62.124 286.551 62.772 286.231 63.351L284.323 67.069ZM328.196 28.742C324.715 35.657 321.636 41.727 318.972 46.952C316.308 52.177 313.999 56.708 312.044 60.536C310.089 64.364 308.44 67.58 307.098 70.196C305.749 72.812 304.652 74.958 303.814 76.647C301.859 80.557 300.776 82.69 300.564 83.064C300.244 83.807 299.637 84.174 298.745 84.174H294.228C295.127 82.382 296.299 80.073 297.75 77.246C299.201 74.426 300.775 71.346 302.464 68.022C304.154 64.697 305.911 61.237 307.73 57.646C309.549 54.056 311.307 50.588 312.996 47.236C314.686 43.884 316.252 40.812 317.71 38.012C319.161 35.212 320.333 32.916 321.232 31.125C321.6 30.389 322.131 29.803 322.813 29.381C323.501 28.959 324.264 28.747 325.109 28.747H328.195V28.742H328.196Z" fill="#181818"/>
<path d="M387.581 43.866C387.581 45.923 387.186 47.879 386.396 49.725C385.606 51.571 384.523 53.186 383.146 54.555C381.77 55.931 380.162 57.008 378.316 57.805C376.47 58.595 374.515 58.99 372.457 58.99H340.07V81.478C340.07 82.221 339.804 82.854 339.28 83.379C338.749 83.91 338.115 84.169 337.379 84.169H334.763V53.996C341.31 53.996 346.746 53.996 351.079 53.996C355.405 53.996 358.92 53.996 361.611 53.996C364.302 53.996 366.332 53.996 367.708 53.996C369.077 53.996 370.072 53.996 370.678 53.996C371.284 53.996 371.679 53.982 371.863 53.955C372.047 53.928 372.272 53.914 372.537 53.914C373.906 53.914 375.214 53.648 376.454 53.124C377.694 52.599 378.763 51.87 379.663 50.944C380.562 50.018 381.271 48.955 381.802 47.735C382.327 46.522 382.592 45.228 382.592 43.852C382.592 42.483 382.34 41.188 381.843 39.969C381.339 38.756 380.63 37.7 379.704 36.801C378.777 35.902 377.694 35.18 376.454 34.621C375.214 34.069 373.852 33.79 372.373 33.79C372.318 33.79 371.106 33.763 368.728 33.708H338.719C337.663 33.708 336.737 33.326 335.946 32.557C335.156 31.794 334.761 30.854 334.761 29.743V28.714H371.978C374.144 28.66 376.161 29.021 378.034 29.784C379.907 30.547 381.556 31.617 382.987 32.993C384.411 34.369 385.535 35.991 386.352 37.864C387.172 39.758 387.581 41.754 387.581 43.866Z" fill="#181818"/>
<path d="M400.484 66.15V84.121H403.1C403.822 84.121 404.442 83.869 404.96 83.365C405.512 82.834 405.791 82.084 405.791 81.321V69.311C405.791 67.567 404.374 66.15 402.63 66.15H400.484Z" fill="#181818"/>
<path d="M447.708 28.565C446.945 28.565 446.196 28.844 445.664 29.396C445.16 29.914 444.908 30.541 444.908 31.256V78.923L408.004 29.117C407.636 28.749 407.261 28.565 406.894 28.565H400.483V43.369C400.483 45.113 401.9 46.53 403.644 46.53H405.783V33.708L442.687 83.44C442.898 83.808 443.239 83.992 443.716 83.992H450.215V28.558H447.708V28.565Z" fill="#181818"/>
<path d="M99.288 12.552C99.288 12.552 59.32 -15.689 0.988964 12.552C-6.68604 81.25 50.093 112.55 50.093 112.55H50.145C50.145 112.55 106.957 81.25 99.288 12.552Z" fill="#181818"/>
<path d="M1.14401 39.566C2.13901 43.582 2.74601 47.393 4.04501 50.959C5.63201 55.594 7.62501 60.081 10.002 64.369C11.812 67.624 14.429 70.363 17.605 72.327C20.78 74.291 24.409 75.414 28.144 75.588C35.374 76.07 42.791 76.578 49.892 75.517C62.931 73.589 70.083 58.701 64.01 47.064C60.411 40.156 54.441 36.268 46.462 35.967C42.417 35.813 38.36 35.999 34.309 35.896C32.719 35.857 32.261 36.372 32.267 37.926C32.325 48.207 32.299 58.456 32.299 68.725V71.116C31.915 71.06 31.536 70.97 31.169 70.846C22.285 66.219 17.349 58.913 17.006 48.966C16.696 40.034 16.935 31.083 16.941 22.138C16.941 21.771 16.999 21.405 17.045 20.853C17.769 20.808 18.44 20.731 19.106 20.731C27.906 20.731 36.706 20.686 45.499 20.731C69.941 20.853 86.65 43.08 79.911 66.457C75.892 80.407 62.311 90.926 47.489 91.35C41.028 91.537 34.567 91.832 28.19 90.38C12.89 86.89 3.35301 76.886 0.782006 61.412C-0.260994 54.552 -0.260994 47.575 0.782006 40.715C0.872006 40.324 0.993006 39.939 1.14401 39.566Z" fill="white"/>
</g>
<defs>
<clipPath id="clip0_426_9129">
<rect width="450.216" height="112.55" fill="white"/>
</clipPath>
</defs>
</svg>
