<svg width="32" height="39" viewBox="0 0 32 39" fill="none" xmlns="http://www.w3.org/2000/svg">
<g clip-path="url(#clip0_151_583)">
<path d="M12.549 8.81995C12.1497 8.76112 12.1307 8.74152 12.3209 8.72191C12.6821 8.66309 13.5187 8.74152 14.1081 8.87877C15.4771 9.21211 16.713 10.0749 18.025 11.5847L18.3672 11.9964L18.8616 11.918C20.9721 11.565 23.1396 11.8396 24.9459 12.7023C25.4403 12.9376 26.2198 13.4082 26.3149 13.5258C26.3529 13.565 26.41 13.8199 26.448 14.0749C26.5811 14.9964 26.5241 15.6827 26.2389 16.2121C26.0867 16.5062 26.0867 16.5847 26.1818 16.8396C26.2579 17.0356 26.486 17.1729 26.6952 17.1729C27.1515 17.1729 27.6269 16.4278 27.855 15.3886L27.9501 14.9768L28.1212 15.1729C29.0909 16.2905 29.8515 17.8396 29.9655 18.9376L30.0036 19.2317L29.8324 18.9768C29.5472 18.5258 29.281 18.2317 28.9198 17.9768C28.2733 17.5258 27.5888 17.3886 25.7825 17.2905C24.1474 17.1925 23.2157 17.0552 22.303 16.7415C20.7439 16.2121 19.9453 15.5258 18.101 12.9964C17.2834 11.8788 16.7701 11.2709 16.2567 10.7611C15.1349 9.64348 14.0131 9.05524 12.549 8.81995Z" fill="#181818"/>
<path d="M26.7142 11.3101C26.7522 10.565 26.8473 10.0748 27.0564 9.62386C27.1325 9.44739 27.2085 9.29053 27.2276 9.29053C27.2466 9.29053 27.2085 9.42778 27.1515 9.58464C26.9994 10.016 26.9804 10.6239 27.0755 11.3101C27.2085 12.1925 27.2656 12.3101 28.1782 13.2709C28.5965 13.7219 29.0909 14.2905 29.281 14.5258L29.6043 14.9572L29.281 14.6435C28.8817 14.2513 27.9691 13.5062 27.7599 13.4082C27.6268 13.3297 27.6078 13.3297 27.5128 13.4278C27.4367 13.5062 27.4177 13.6239 27.4177 14.1925C27.3987 15.0748 27.2846 15.6239 26.9994 16.1925C26.8473 16.4866 26.8283 16.4278 26.9614 16.0944C27.0564 15.8395 27.0755 15.7219 27.0755 14.8788C27.0755 13.1729 26.8853 12.7611 25.7255 12.0748C25.4403 11.8984 24.9459 11.6435 24.6607 11.5062C24.3565 11.369 24.1283 11.2513 24.1473 11.2513C24.1854 11.2121 25.3072 11.5454 25.7445 11.7415C26.41 12.016 26.5241 12.0356 26.6001 12.016C26.6571 11.9572 26.6952 11.8003 26.7142 11.3101Z" fill="#181818"/>
<path d="M13.3286 14.2315C12.53 13.0942 12.0166 11.3295 12.1307 10.0158L12.1687 9.604L12.3589 9.64322C12.7011 9.70204 13.2906 9.93734 13.5758 10.1138C14.3363 10.5844 14.6786 11.2315 15.0018 12.8393C15.0969 13.3099 15.23 13.8589 15.287 14.0354C15.3821 14.3295 15.7433 15.0158 16.0475 15.4471C16.2567 15.7609 16.1236 15.9177 15.6483 15.8785C14.9257 15.8001 13.956 15.1138 13.3286 14.2315Z" fill="#181818"/>
<path d="M25.7445 22.761C21.9798 21.1924 20.6488 19.8395 20.6488 17.5453C20.6488 17.212 20.6678 16.9375 20.6678 16.9375C20.6869 16.9375 20.82 17.0551 20.9911 17.1924C21.7516 17.8199 22.6072 18.0944 24.9839 18.4473C26.3719 18.663 27.1705 18.8199 27.893 19.0748C30.1937 19.8591 31.6197 21.4669 31.962 23.6434C32.057 24.2708 32 25.4669 31.8479 26.0944C31.7148 26.5846 31.3345 27.4865 31.2394 27.5061C31.2204 27.5061 31.1824 27.4081 31.1824 27.2512C31.1444 26.4277 30.7451 25.6434 30.0796 25.0355C29.281 24.3297 28.2543 23.8002 25.7445 22.761Z" fill="#181818"/>
<path d="M23.0826 23.4082C23.0446 23.1141 22.9495 22.7415 22.8925 22.5846L22.7974 22.2905L22.9685 22.5062C23.2157 22.8003 23.4058 23.1533 23.5769 23.6435C23.71 24.016 23.71 24.1337 23.71 24.7415C23.71 25.3297 23.691 25.467 23.5769 25.8003C23.3868 26.3297 23.1586 26.7023 22.7784 27.1141C22.0939 27.8395 21.2002 28.2317 19.9263 28.4082C19.6982 28.4278 19.0517 28.4866 18.4813 28.5258C17.0553 28.6043 16.1046 28.7611 15.249 29.0748C15.1349 29.1141 15.0208 29.1533 15.0018 29.1337C14.9638 29.0944 15.5532 28.7415 16.0285 28.5062C16.694 28.1729 17.3785 27.9964 18.8806 27.7219C19.6221 27.6043 20.3826 27.4474 20.5728 27.369C22.4551 26.7611 23.3868 25.2513 23.0826 23.4082Z" fill="#181818"/>
<path d="M24.8128 26.5649C24.3185 25.4473 24.2044 24.3885 24.4706 23.3885C24.5086 23.2904 24.5466 23.1924 24.5847 23.1924C24.6227 23.1924 24.7368 23.2512 24.8509 23.3296C25.079 23.4865 25.5544 23.761 26.7712 24.4473C28.3114 25.31 29.186 25.9767 29.7944 26.7414C30.3268 27.4081 30.65 28.1728 30.8021 29.114C30.8972 29.6434 30.8402 30.9179 30.7071 31.4473C30.2888 33.114 29.3381 34.4473 27.9501 35.212C27.7409 35.3296 27.5698 35.4081 27.5508 35.4081C27.5318 35.4081 27.6078 35.212 27.7219 34.9767C28.1783 33.9767 28.2353 33.0159 27.8931 31.9375C27.6839 31.2708 27.2466 30.4669 26.372 29.114C25.3262 27.5453 25.079 27.1336 24.8128 26.5649Z" fill="#181818"/>
<path d="M10.6476 32.5652C12.0547 31.3495 13.7849 30.4868 15.382 30.2123C16.0665 30.0946 17.2074 30.1338 17.8348 30.3103C18.8425 30.5848 19.7552 31.1731 20.2305 31.8985C20.6869 32.6044 20.896 33.2123 21.1052 34.5652C21.1812 35.0946 21.2763 35.6436 21.2953 35.7613C21.4474 36.4672 21.7516 37.0162 22.1319 37.3103C22.7213 37.7613 23.7481 37.7809 24.7558 37.3887C24.9269 37.3299 25.079 37.2711 25.079 37.2907C25.117 37.3299 24.6037 37.6829 24.2614 37.8593C23.7861 38.1142 23.4058 38.1927 22.8924 38.1927C21.9798 38.1927 21.2002 37.7025 20.5728 36.7221C20.4397 36.526 20.1735 35.9574 19.9453 35.428C19.2798 33.8397 18.9376 33.3691 18.158 32.8397C17.4735 32.3887 16.5989 32.2907 15.9334 32.624C15.0588 33.0554 14.8306 34.2123 15.4391 34.9182C15.6863 35.2123 16.1426 35.4476 16.5229 35.5064C17.2264 35.6044 17.8348 35.0358 17.8348 34.3103C17.8348 33.8397 17.6637 33.5652 17.2074 33.3495C16.5989 33.075 15.9334 33.3887 15.9525 33.9966C15.9525 34.2515 16.0665 34.4083 16.3137 34.526C16.4658 34.6044 16.4658 34.6044 16.3517 34.5848C15.8003 34.4672 15.6672 33.7613 16.1046 33.3103C16.6369 32.7613 17.7587 32.9966 18.139 33.7613C18.2911 34.075 18.3101 34.7025 18.1771 35.0946C17.8538 35.9574 16.9412 36.4083 16.0095 36.1534C15.382 35.977 15.1158 35.8005 14.3553 34.9966C13.0243 33.5848 12.511 33.3103 10.6096 33.0162L10.2484 32.9574L10.6476 32.5652Z" fill="#181818"/>
<path fill-rule="evenodd" clip-rule="evenodd" d="M0.646425 1.01599C5.07661 6.56501 11.9025 15.1925 12.2448 15.663C12.53 16.0552 12.4159 16.4278 11.9405 16.7023C11.6744 16.8591 11.123 17.016 10.8568 17.016C10.5525 17.016 10.1913 16.8591 9.94411 16.6042C9.77298 16.4278 9.03145 15.3101 7.35825 12.6238C6.08433 10.565 5.00056 8.85913 4.98154 8.83952C4.90549 8.8003 4.90549 8.8003 7.22515 13.0748C8.68921 15.7611 9.16455 16.7219 9.16455 16.8395C9.16455 17.0944 9.08849 17.2317 8.78427 17.5846C8.27091 18.1729 8.04274 18.8395 7.87162 20.2317C7.68148 21.7807 7.16811 22.8787 5.70406 24.7415C4.84845 25.8395 4.71535 26.0356 4.5062 26.4866C4.24001 27.0356 4.16395 27.3493 4.12593 28.0552C4.0879 28.8003 4.16395 29.2709 4.3731 29.9768C4.56324 30.6042 4.77239 31.016 5.28576 31.8199C5.72307 32.5258 5.98927 33.0552 5.98927 33.2513C5.98927 33.4081 6.02729 33.4081 6.71178 33.2513C8.34696 32.8591 9.69693 32.1925 10.4385 31.3689C10.8948 30.8591 11.0089 30.5846 11.0089 29.8787C11.0089 29.4278 10.9899 29.3297 10.8758 29.0552C10.6856 28.6238 10.3244 28.2709 9.54482 27.7219C8.51808 26.9964 8.08077 26.4081 7.96669 25.6238C7.87162 24.9572 7.9857 24.5062 8.55611 23.2709C9.14553 21.9964 9.29764 21.467 9.39271 20.1729C9.44975 19.3493 9.54482 19.016 9.77299 18.7611C10.0202 18.4866 10.2293 18.3885 10.8187 18.3101C11.7884 18.1729 12.4159 17.9179 12.9102 17.4278C13.3476 17.016 13.5377 16.6042 13.5567 15.9964L13.5757 15.5454L13.3285 15.2709C12.4349 14.2121 0.0570017 0.172852 -3.92729e-05 0.172852C-0.0190529 0.172852 0.285166 0.545401 0.646425 1.01599ZM6.48362 28.8983C6.69277 28.5258 6.57869 28.0552 6.23644 27.8199C5.91321 27.6042 5.41886 27.7023 5.41886 27.9964C5.41886 28.0748 5.45688 28.1532 5.57096 28.1925C5.74209 28.2905 5.7611 28.3885 5.62801 28.6042C5.49491 28.8199 5.49491 29.016 5.66603 29.1532C5.93222 29.3689 6.29348 29.2513 6.48362 28.8983Z" fill="#181818"/>
<path fill-rule="evenodd" clip-rule="evenodd" d="M14.1842 18.5846C13.7279 18.7218 13.2905 19.2316 13.1574 19.7414C13.0814 20.0551 13.1194 20.6238 13.2525 20.8002C13.4617 21.0747 13.6518 21.1532 14.1842 21.1532C15.2299 21.1532 16.1236 20.6826 16.2186 20.114C16.3137 19.6434 15.9144 18.9963 15.363 18.7022C15.0778 18.5453 14.4884 18.4865 14.1842 18.5846ZM15.4011 19.5649C15.5532 19.3296 15.4961 19.0747 15.2109 18.8983C14.6976 18.5649 13.918 18.8395 13.918 19.3493C13.918 19.6042 14.3173 19.8787 14.6976 19.8787C14.9447 19.8787 15.287 19.7218 15.4011 19.5649Z" fill="#181818"/>
</g>
<defs>
<clipPath id="clip0_151_583">
<rect width="32" height="38" fill="white" transform="translate(0 0.172852)"/>
</clipPath>
</defs>
</svg>
